<svg width="512" height="416" viewBox="0 0 512 416" fill="none" xmlns="http://www.w3.org/2000/svg">
<g clip-path="url(#clip0_302_2544)">
<path d="M512 41.6394V374.361C512 397.36 491.083 416 465.273 416H46.7265C20.9168 416 0 397.36 0 374.361V41.6394C0 18.6396 20.9168 0 46.7265 0H465.273C491.083 0 512 18.6396 512 41.6394Z" fill="#F2F2F2"/>
<path d="M170.745 414.902L200.701 408.415L235.412 400.892C235.412 400.892 237.291 406.636 239.928 414.902H170.745Z" fill="#2F2E41"/>
<path d="M246.575 411.176C246.575 411.176 246.295 412.675 245.72 414.902H105.867C104.325 410.209 103.638 405.375 105.475 401.382C105.784 400.685 106.174 400.026 106.639 399.421C106.983 398.945 107.368 398.499 107.789 398.09C110.538 395.371 112.221 389.515 113.23 382.846C114.443 373.726 114.944 364.526 114.731 355.329C114.745 355.315 114.745 355.315 114.731 355.315C114.703 353.143 114.647 351.84 114.647 351.84C114.647 351.84 114.114 343.812 113.511 331.679C113.525 331.679 113.511 331.665 113.511 331.665C111.856 298.922 109.612 236.239 115.432 219.622C115.803 218.221 116.556 216.951 117.606 215.951C125.441 210.302 133.779 205.382 142.513 201.254C143.018 201.03 143.285 200.904 143.285 200.904L162.484 200.539L186.326 196.336L202.889 193.31C202.889 193.31 204.109 193.394 206.016 193.66C212.355 194.529 226.296 197.373 228.259 205.611C228.259 205.625 228.273 205.639 228.273 205.653C228.522 206.733 228.564 207.85 228.4 208.946C226.52 222.676 239.787 307.006 243.827 311.224C247.866 315.441 246.8 330.852 236.814 340.646C235.055 342.457 233.773 344.677 233.084 347.105C229.311 359.224 235.23 379.021 241.022 388.282C245.23 395.143 247.173 403.151 246.575 411.176Z" fill="#3F3D56"/>
<path d="M322.95 141.578L322.548 126.917L322.011 107.257L306.321 106.532L304.125 126.067L302.078 144.219L322.95 141.578Z" fill="#A0616A"/>
<path d="M162.247 203.656L184.257 227.254C184.257 227.254 277.517 242.302 278.141 234.401C278.765 226.5 272.622 224.211 282.692 224.913C292.762 225.615 295.182 232.763 296.716 225.927C298.251 219.092 289.808 218.924 299.584 217.955C309.36 216.986 330.713 131.715 330.713 131.715L296.652 137.203C296.652 137.203 290.032 178.432 285.881 183.701C281.73 188.97 277.564 192.751 275.003 192.979C272.442 193.207 162.247 203.656 162.247 203.656Z" fill="#3F3D56"/>
<path d="M174.869 173.148C192.727 173.148 207.204 158.686 207.204 140.845C207.204 123.005 192.727 108.543 174.869 108.543C157.011 108.543 142.535 123.005 142.535 140.845C142.535 158.686 157.011 173.148 174.869 173.148Z" fill="#A0616A"/>
<path d="M149.672 168.665L162.49 171.117C162.49 171.117 150.569 151.895 151.271 143.096C151.972 134.297 161.565 131.145 161.565 131.145C161.565 131.145 166.88 132.294 172.476 132.938C173.146 131.053 174.016 129.245 175.07 127.544C175.278 129.74 176.251 131.793 177.819 133.344C179.87 133.52 181.935 133.282 183.892 132.644C186.108 131.635 186.065 129.884 185.336 128.245C196.009 128.763 206.12 133.947 206.12 133.947C206.443 129.646 206.278 125.322 205.63 121.057C205.321 120.973 205.013 120.875 204.704 120.777C202.793 120.173 200.95 119.37 199.206 118.381C201.147 118.124 202.96 117.272 204.395 115.943C203.217 112.497 201.338 109.512 198.379 108.055C195.524 106.66 192.402 105.895 189.225 105.81C186.048 105.726 182.89 106.324 179.965 107.565C179.965 107.565 186.823 102.563 184.298 100.518C184.13 100.686 183.962 100.84 183.779 100.994C183.541 101.19 183.274 101.4 183.022 101.596C181.465 102.857 179.137 101.078 178.829 99.1725C178.796 98.9319 178.749 98.6933 178.688 98.458C178.646 98.2618 178.59 98.0657 178.534 97.8835C178.487 97.7219 178.43 97.5629 178.366 97.4072C173.696 96.2862 159.573 100.84 154.146 110.871C154.146 110.871 116.209 129.085 149.672 168.665Z" fill="#3F3D56"/>
<path d="M134.169 414.902H116.049L115.432 413.879L106.639 399.42L101.786 391.434L113.23 382.846L118.616 378.811L130.494 406.369L134.169 414.902Z" fill="#A0616A"/>
<path d="M142.519 201.254L187.734 305.619L206.022 193.66C204.115 193.394 202.895 193.31 202.895 193.31L195.111 178.207L150.527 180.518L143.291 200.904C143.291 200.904 143.024 201.03 142.519 201.254Z" fill="#F9A826"/>
<path d="M202.005 414.902H166.397L189.131 350.453L200.701 408.415L202.005 414.902Z" fill="#F9A826"/>
<path opacity="0.5" d="M418.503 217.127H316.148C299.92 217.127 286.764 230.27 286.764 246.482V283.45C286.764 299.663 299.92 312.805 316.148 312.805H418.503C434.732 312.805 447.887 299.663 447.887 283.45V246.482C447.887 230.27 434.732 217.127 418.503 217.127Z" fill="white"/>
<path d="M418.503 313.903H316.148C308.066 313.893 300.318 310.682 294.604 304.973C288.889 299.264 285.675 291.524 285.665 283.45V246.482C285.675 238.409 288.889 230.668 294.604 224.959C300.318 219.25 308.066 216.039 316.148 216.03H418.503C426.585 216.039 434.333 219.25 440.048 224.959C445.762 230.668 448.977 238.409 448.986 246.482V283.45C448.977 291.524 445.762 299.264 440.048 304.973C434.333 310.682 426.585 313.893 418.503 313.903ZM316.148 218.225C308.649 218.233 301.459 221.213 296.157 226.511C290.854 231.808 287.871 238.991 287.863 246.482V283.45C287.871 290.942 290.854 298.124 296.157 303.422C301.459 308.719 308.649 311.699 316.148 311.707H418.503C426.002 311.699 433.192 308.719 438.495 303.422C443.797 298.124 446.78 290.942 446.789 283.45V246.482C446.78 238.991 443.797 231.808 438.495 226.511C433.192 221.213 426.002 218.233 418.503 218.225L316.148 218.225Z" fill="white"/>
<path d="M367.194 292.073C380.155 292.073 390.662 281.576 390.662 268.628C390.662 255.68 380.155 245.183 367.194 245.183C354.233 245.183 343.726 255.68 343.726 268.628C343.726 281.576 354.233 292.073 367.194 292.073Z" fill="#A0616A"/>
<path d="M372.34 291.94C369.459 285.522 385.07 272.206 375.067 271.531C375.067 271.531 368.492 260.014 364.317 263.101C359.482 266.676 352.438 260.183 348.299 255.839C349.18 255.129 349.97 254.314 350.652 253.412C349.337 253.653 348.005 253.792 346.668 253.829C346.172 253.095 345.825 252.272 345.647 251.405C345.453 250.584 345.515 249.724 345.824 248.94C346.134 248.155 346.676 247.484 347.378 247.017C348.895 246.172 350.833 246.688 352.453 246.082C352.656 245.984 352.831 245.838 352.964 245.656C353.098 245.475 353.185 245.264 353.219 245.042C353.341 244.518 353.576 244.028 353.909 243.606C354.242 243.184 354.664 242.841 355.145 242.6C355.626 242.359 356.154 242.228 356.692 242.215C357.23 242.201 357.764 242.307 358.256 242.523C358.444 242.63 358.655 242.688 358.871 242.694C360.001 242.622 361.118 242.416 362.199 242.08C360.986 241.514 359.818 240.855 358.705 240.111C358.476 239.956 358.247 239.801 358.023 239.637C359.031 238.819 360.203 238.228 361.461 237.905C362.718 237.582 364.031 237.534 365.309 237.764C367.988 238.285 370.571 239.216 372.965 240.525C374.384 241.216 375.8 241.906 377.213 242.593C380.264 243.935 383.164 245.595 385.864 247.546C388.682 249.759 390.975 252.565 392.581 255.765C394.187 258.966 395.066 262.481 395.154 266.06C395.283 273.2 389.169 292.765 372.34 291.94Z" fill="#2F2E41"/>
<path opacity="0.5" d="M227.715 310.443H125.359C109.131 310.443 95.9752 323.586 95.9752 339.798V376.766C95.9752 392.979 109.131 406.121 125.359 406.121H227.715C243.943 406.121 257.099 392.979 257.099 376.766V339.798C257.099 323.586 243.943 310.443 227.715 310.443Z" fill="white"/>
<path d="M227.715 407.219H125.359C117.278 407.21 109.53 403.998 103.815 398.289C98.1003 392.58 94.8858 384.84 94.8766 376.766V339.799C94.8857 331.725 98.1003 323.984 103.815 318.275C109.53 312.566 117.278 309.355 125.359 309.346H227.715C235.796 309.355 243.544 312.566 249.259 318.275C254.974 323.984 258.188 331.725 258.197 339.799V376.766C258.188 384.84 254.974 392.58 249.259 398.289C243.544 403.998 235.796 407.21 227.715 407.219ZM125.359 311.541C117.86 311.55 110.671 314.529 105.368 319.827C100.065 325.124 97.0825 332.307 97.074 339.799V376.766C97.0825 384.258 100.065 391.44 105.368 396.738C110.671 402.035 117.86 405.015 125.359 405.024H227.715C235.214 405.015 242.403 402.035 247.706 396.738C253.009 391.441 255.991 384.258 256 376.766V339.799C255.991 332.307 253.009 325.124 247.706 319.827C242.403 314.53 235.214 311.55 227.715 311.541H125.359Z" fill="white"/>
<path d="M178.109 388.796C191.278 388.796 201.954 378.131 201.954 364.975C201.954 351.819 191.278 341.154 178.109 341.154C164.94 341.154 154.264 351.819 154.264 364.975C154.264 378.131 164.94 388.796 178.109 388.796Z" fill="#FFB6B6"/>
<path d="M162.575 371.095C162.279 370.996 161.964 370.961 161.653 370.993C161.342 371.025 161.041 371.124 160.771 371.282C160.501 371.44 160.269 371.655 160.089 371.911C159.909 372.166 159.786 372.458 159.729 372.765C159.65 373.396 159.701 374.036 159.879 374.647C160.057 375.257 160.358 375.825 160.763 376.315C161.577 377.289 162.307 378.331 162.944 379.428C163.255 379.984 163.4 380.616 163.364 381.251C163.327 381.886 163.11 382.498 162.737 383.014C162.33 383.409 161.82 383.681 161.266 383.798C160.711 383.915 160.134 383.872 159.603 383.674C158.545 383.261 157.61 382.586 156.885 381.713C152.326 376.772 147.571 368.569 149.901 362.266C150.095 361.592 150.172 360.89 150.129 360.191C150.173 359.389 150.322 358.18 149.566 357.908C147.455 357.146 153.377 344.824 162.516 342.143C162.07 337.935 184.057 331.883 182.856 337.166C182.641 338.114 184.764 337.599 185.736 337.651C193.196 338.054 201.62 339.927 200.941 348.564C200.678 351.909 202.063 351.138 203.175 354.303C201.443 355.335 200.874 357.598 199.539 356.088C198.203 354.578 197.063 352.687 195.149 352.053C193.11 351.378 190.899 352.388 189.161 353.647C187.422 354.907 185.827 356.471 183.784 357.131C181.492 357.871 178.993 357.356 176.604 357.655C173.195 358.24 170.116 360.047 167.945 362.737C165.805 365.412 163.999 368.337 162.567 371.447" fill="#2F2E41"/>
<path d="M149.167 215.692L116.911 217.093C116.911 217.093 69.2272 298.355 74.837 303.959C80.4468 309.564 86.1777 306.382 79.1049 313.577C72.0321 320.772 65.0198 317.97 69.2272 323.574C73.4345 329.178 79.0443 322.872 73.4345 330.929C67.8247 338.986 113.404 414.902 113.404 414.902L133.039 405.095C133.039 405.095 113.932 354.938 112.616 348.363C111.301 341.788 111.127 336.168 112.616 334.074C114.106 331.981 149.167 215.692 149.167 215.692Z" fill="#3F3D56"/>
<path d="M314.36 241.232C318.537 241.232 321.923 237.85 321.923 233.677C321.923 229.504 318.537 226.122 314.36 226.122C310.184 226.122 306.798 229.504 306.798 233.677C306.798 237.85 310.184 241.232 314.36 241.232Z" fill="#F9A826"/>
<path d="M313.329 237.609C313.198 237.609 313.069 237.579 312.952 237.52C312.836 237.462 312.734 237.377 312.656 237.273L310.593 234.525C310.525 234.436 310.476 234.336 310.448 234.229C310.42 234.121 310.414 234.01 310.429 233.9C310.444 233.79 310.481 233.684 310.538 233.589C310.594 233.493 310.669 233.41 310.757 233.344C310.846 233.277 310.947 233.229 311.055 233.201C311.162 233.174 311.274 233.168 311.384 233.184C311.494 233.2 311.599 233.238 311.694 233.295C311.789 233.352 311.872 233.427 311.938 233.516L313.288 235.314L316.755 230.119C316.879 229.934 317.071 229.805 317.29 229.761C317.509 229.717 317.736 229.762 317.922 229.886C318.107 230.01 318.236 230.202 318.28 230.42C318.324 230.639 318.279 230.866 318.155 231.051L314.029 237.235C313.954 237.347 313.854 237.439 313.736 237.504C313.618 237.569 313.486 237.605 313.352 237.609L313.329 237.609Z" fill="white"/>
<path d="M129.777 335.628C133.953 335.628 137.339 332.245 137.339 328.073C137.339 323.9 133.953 320.518 129.777 320.518C125.6 320.518 122.214 323.9 122.214 328.073C122.214 332.245 125.6 335.628 129.777 335.628Z" fill="#F9A826"/>
<path d="M128.745 332.005C128.614 332.005 128.486 331.974 128.369 331.916C128.252 331.858 128.15 331.773 128.072 331.669L126.009 328.92C125.942 328.832 125.893 328.731 125.865 328.624C125.837 328.517 125.83 328.405 125.845 328.296C125.861 328.186 125.898 328.08 125.954 327.985C126.01 327.889 126.085 327.806 126.174 327.739C126.263 327.673 126.364 327.625 126.471 327.597C126.579 327.57 126.69 327.564 126.8 327.58C126.91 327.596 127.016 327.634 127.111 327.691C127.206 327.748 127.289 327.823 127.355 327.912L128.705 329.71L132.171 324.515C132.233 324.423 132.311 324.344 132.403 324.283C132.495 324.221 132.598 324.178 132.706 324.157C132.815 324.135 132.926 324.135 133.035 324.157C133.143 324.178 133.246 324.221 133.338 324.282C133.43 324.343 133.509 324.422 133.57 324.513C133.632 324.605 133.675 324.708 133.696 324.816C133.718 324.924 133.718 325.036 133.697 325.144C133.675 325.252 133.633 325.355 133.571 325.447L129.445 331.63C129.37 331.742 129.27 331.835 129.152 331.9C129.034 331.965 128.903 332.001 128.768 332.004L128.745 332.005Z" fill="white"/>
<path d="M423.133 245.265C421.656 245.265 420.213 244.827 418.985 244.008C417.757 243.188 416.8 242.023 416.235 240.66C415.67 239.297 415.522 237.798 415.81 236.351C416.098 234.904 416.809 233.575 417.853 232.532C418.898 231.488 420.228 230.778 421.676 230.49C423.125 230.202 424.626 230.35 425.99 230.915C427.355 231.479 428.521 232.435 429.341 233.662C430.161 234.888 430.599 236.331 430.599 237.806C430.599 239.784 429.813 241.681 428.413 243.08C427.012 244.479 425.113 245.265 423.133 245.265Z" fill="#E6E6E6"/>
<path d="M425.737 239.367L424.174 237.806L425.737 236.245C425.806 236.177 425.861 236.096 425.898 236.006C425.936 235.917 425.955 235.821 425.956 235.724C425.956 235.627 425.937 235.531 425.9 235.441C425.863 235.351 425.809 235.27 425.74 235.201C425.671 235.133 425.59 235.078 425.5 235.041C425.41 235.004 425.314 234.986 425.217 234.986C425.12 234.986 425.024 235.006 424.934 235.043C424.845 235.081 424.763 235.136 424.695 235.205L423.133 236.765L421.57 235.205C421.432 235.067 421.245 234.99 421.05 234.991C420.855 234.991 420.668 235.068 420.53 235.206C420.393 235.344 420.315 235.53 420.315 235.725C420.314 235.92 420.391 236.107 420.529 236.245L422.091 237.806L420.529 239.367C420.46 239.435 420.405 239.516 420.367 239.606C420.33 239.695 420.31 239.791 420.31 239.888C420.31 239.985 420.329 240.081 420.366 240.171C420.403 240.26 420.457 240.342 420.526 240.411C420.594 240.479 420.676 240.533 420.766 240.57C420.855 240.607 420.952 240.626 421.049 240.626C421.146 240.626 421.242 240.606 421.331 240.569C421.421 240.531 421.502 240.476 421.57 240.407L423.133 238.846L424.695 240.407C424.764 240.476 424.845 240.53 424.934 240.568C425.024 240.605 425.12 240.624 425.216 240.624C425.313 240.624 425.409 240.605 425.499 240.569C425.588 240.532 425.67 240.477 425.738 240.409C425.807 240.34 425.861 240.259 425.898 240.17C425.935 240.08 425.954 239.984 425.954 239.887C425.954 239.791 425.935 239.695 425.897 239.606C425.86 239.516 425.805 239.435 425.737 239.367Z" fill="white"/>
<path d="M229.76 335.27C228.283 335.27 226.839 334.833 225.611 334.013C224.384 333.194 223.427 332.029 222.861 330.666C222.296 329.303 222.148 327.803 222.437 326.356C222.725 324.909 223.436 323.58 224.48 322.537C225.524 321.494 226.855 320.783 228.303 320.495C229.751 320.208 231.253 320.355 232.617 320.92C233.981 321.485 235.147 322.441 235.968 323.667C236.788 324.894 237.226 326.336 237.226 327.811C237.226 329.789 236.439 331.687 235.039 333.086C233.639 334.484 231.74 335.27 229.76 335.27Z" fill="#E6E6E6"/>
<path d="M232.363 329.372L230.801 327.811L232.363 326.25C232.5 326.112 232.576 325.925 232.576 325.731C232.575 325.537 232.498 325.35 232.36 325.213C232.223 325.076 232.036 324.998 231.842 324.998C231.647 324.997 231.46 325.073 231.322 325.21L229.759 326.771L228.197 325.21C228.059 325.072 227.872 324.996 227.677 324.996C227.482 324.996 227.295 325.074 227.157 325.211C227.019 325.349 226.942 325.536 226.941 325.731C226.941 325.925 227.018 326.112 227.155 326.25L228.718 327.811L227.155 329.372C227.086 329.44 227.032 329.521 226.994 329.611C226.956 329.7 226.937 329.796 226.937 329.893C226.936 329.99 226.955 330.086 226.992 330.176C227.029 330.266 227.084 330.347 227.152 330.416C227.221 330.484 227.302 330.539 227.392 330.576C227.482 330.613 227.578 330.632 227.675 330.631C227.772 330.631 227.869 330.612 227.958 330.574C228.048 330.536 228.129 330.482 228.197 330.413L229.759 328.852L231.322 330.413C231.46 330.55 231.647 330.627 231.842 330.627C232.037 330.626 232.224 330.549 232.362 330.411C232.5 330.273 232.577 330.087 232.578 329.892C232.578 329.697 232.501 329.51 232.363 329.372Z" fill="white"/>
<path d="M314.232 113.055C321.513 113.055 327.416 107.158 327.416 99.8839C327.416 92.6095 321.513 86.7124 314.232 86.7124C306.95 86.7124 301.047 92.6095 301.047 99.8839C301.047 107.158 306.95 113.055 314.232 113.055Z" fill="#A0616A"/>
<path opacity="0.5" d="M418.148 96.3709H315.792C299.564 96.3709 286.408 109.514 286.408 125.726V162.694C286.408 178.906 299.564 192.049 315.792 192.049H418.148C434.376 192.049 447.532 178.906 447.532 162.694V125.726C447.532 109.514 434.376 96.3709 418.148 96.3709Z" fill="white"/>
<path d="M418.148 193.147H315.792C307.71 193.138 299.962 189.926 294.247 184.217C288.533 178.508 285.318 170.768 285.309 162.694V125.726C285.318 117.652 288.533 109.912 294.247 104.203C299.962 98.4936 307.71 95.2823 315.792 95.2731H418.148C426.23 95.2823 433.978 98.4936 439.693 104.203C445.407 109.912 448.622 117.652 448.631 125.726V162.694C448.622 170.768 445.407 178.508 439.693 184.217C433.978 189.926 426.23 193.138 418.148 193.147ZM315.792 97.4684C308.293 97.4769 301.103 100.457 295.8 105.754C290.498 111.052 287.515 118.234 287.507 125.726V162.694C287.515 170.186 290.498 177.368 295.8 182.666C301.103 187.963 308.293 190.943 315.792 190.951H418.148C425.647 190.943 432.837 187.963 438.14 182.666C443.442 177.368 446.425 170.186 446.434 162.694V125.726C446.425 118.234 443.442 111.052 438.14 105.754C432.837 100.457 425.647 97.4769 418.148 97.4684H315.792Z" fill="white"/>
<path d="M397.551 146.956C397.619 153.1 399.576 165.891 398.173 171.908L397.946 171.405C396.78 172.328 395.541 173.156 394.241 173.881C393.304 171.603 391.902 169.545 390.125 167.838C390.359 170.662 390.025 173.504 389.142 176.197C383.891 178.085 374.675 172.135 368.962 172.009C359.772 171.799 350.816 169.516 342.037 167.099C338.92 166.243 335.492 165.127 334.081 162.542C332.67 159.957 335.196 157.167 335.03 154.25C333.853 133.473 343.759 129.99 353.185 124.438C355.259 123.217 356.277 120.586 358.621 119.562C361.872 118.144 365.745 118.824 369.282 119.537C368.403 119.248 367.614 118.738 366.99 118.056C366.366 117.374 365.929 116.543 365.72 115.643C365.572 114.761 365.671 113.855 366.006 113.026C366.341 112.196 366.899 111.476 367.618 110.943C368.691 110.242 369.904 109.785 371.173 109.603C372.442 109.422 373.735 109.521 374.961 109.894C377.363 110.644 379.636 111.76 381.699 113.201C383.099 113.968 384.351 114.98 385.395 116.188C385.887 116.76 386.192 117.469 386.27 118.218C386.348 118.968 386.195 119.724 385.832 120.385C385.384 120.951 384.813 121.409 384.163 121.724C383.513 122.04 382.799 122.204 382.077 122.206C380.963 122.238 379.85 122.123 378.767 121.862C383.732 123.086 388.206 125.79 391.595 129.617C395.804 134.51 397.476 140.813 397.551 146.956Z" fill="#2F2E41"/>
<path d="M364.582 166.96C375.831 166.96 384.95 157.85 384.95 146.612C384.95 135.375 375.831 126.265 364.582 126.265C353.333 126.265 344.214 135.375 344.214 146.612C344.214 157.85 353.333 166.96 364.582 166.96Z" fill="#FFB6B6"/>
<path d="M386.806 143.541C384.412 146.436 380.85 146.285 377.683 145.823C376.683 145.681 375.683 145.521 374.684 145.337C374.507 144.774 374.306 144.212 374.079 143.666C373.141 141.388 371.739 139.331 369.962 137.624C370.149 139.855 369.976 142.102 369.45 144.279C367.593 143.851 365.745 143.373 363.905 142.844C362.277 142.58 360.813 141.7 359.816 140.388C358.818 139.076 358.363 137.432 358.545 135.794C355.899 137.808 353.017 139.554 349.993 139.588C348.288 139.543 346.642 138.955 345.297 137.908C343.951 136.861 342.976 135.412 342.516 133.771C341.814 131.115 341.69 128.339 342.154 125.63C342.558 122.399 343.465 118.849 345.649 117.548C347.405 116.491 349.43 117.246 351.236 118.102C355.215 120.01 358.988 122.322 362.494 125.001L362.536 125.882C363.443 121.543 366.442 118.194 369.71 117.859C371.911 117.64 374.062 118.656 376.137 119.68C378.849 120.875 381.371 122.461 383.622 124.388C386.166 126.699 387.932 129.739 388.68 133.091C389.461 136.726 388.873 141.039 386.806 143.541Z" fill="#2F2E41"/>
<path d="M366.644 115.302C366.853 115.32 366.34 115.202 366.507 115.272C366.425 115.235 366.347 115.191 366.272 115.141C366.259 115.133 366.094 114.999 366.202 115.092C365.953 114.898 365.765 114.637 365.662 114.339C365.43 113.614 365.322 112.857 365.343 112.097C365.384 111.098 365.214 110.102 364.843 109.174C364.733 108.922 364.565 108.7 364.353 108.526C364.141 108.352 363.891 108.23 363.623 108.17C363.355 108.11 363.076 108.114 362.81 108.182C362.544 108.25 362.298 108.38 362.092 108.561C361.511 109.342 361.23 110.306 361.301 111.277C361.248 112.216 361.348 113.158 361.596 114.066C362.022 115.558 362.874 116.895 364.047 117.912C365.402 119.098 367.104 119.815 368.899 119.959C369.146 119.953 369.386 119.876 369.589 119.737C369.793 119.597 369.952 119.402 370.046 119.174C370.141 118.946 370.167 118.696 370.121 118.454C370.076 118.212 369.961 117.988 369.79 117.809L367.535 115.671C367.299 115.437 366.979 115.307 366.646 115.308C366.313 115.309 365.994 115.441 365.759 115.676C365.524 115.912 365.391 116.23 365.39 116.563C365.389 116.895 365.519 117.215 365.753 117.451L368.008 119.59L368.899 117.441C368.527 117.407 368.16 117.332 367.804 117.217C367.419 117.11 367.051 116.949 366.711 116.738C366.378 116.556 366.065 116.338 365.779 116.088C365.597 115.927 365.422 115.758 365.256 115.579C365.196 115.514 365.137 115.449 365.079 115.382C365.084 115.386 364.842 115.084 364.946 115.222C364.685 114.866 364.458 114.486 364.268 114.088C364.201 113.947 364.146 113.801 364.103 113.65C364.023 113.404 363.958 113.152 363.907 112.898C363.811 112.363 363.782 111.819 363.821 111.277C363.832 111.047 363.855 110.818 363.89 110.59C363.922 110.471 363.945 110.349 363.96 110.225C363.965 109.92 363.919 110.389 363.759 110.46L363.123 110.632C363.019 110.623 362.919 110.592 362.829 110.539C362.74 110.487 362.663 110.415 362.605 110.329C362.578 110.224 362.586 110.242 362.627 110.385C362.675 110.552 362.712 110.722 362.738 110.893C362.787 111.293 362.815 111.694 362.823 112.097C362.831 112.949 362.93 113.797 363.118 114.628C363.295 115.464 363.731 116.222 364.364 116.795C364.997 117.368 365.795 117.727 366.644 117.82C366.978 117.817 367.297 117.684 367.533 117.448C367.768 117.213 367.902 116.894 367.905 116.561C367.898 116.229 367.763 115.913 367.528 115.678C367.293 115.443 366.977 115.309 366.644 115.302Z" fill="#2F2E41"/>
<path d="M316.558 120.493C320.734 120.493 324.12 117.111 324.12 112.938C324.12 108.766 320.734 105.383 316.558 105.383C312.381 105.383 308.995 108.766 308.995 112.938C308.995 117.111 312.381 120.493 316.558 120.493Z" fill="#F9A826"/>
<path d="M315.526 116.87C315.395 116.87 315.267 116.84 315.15 116.781C315.033 116.723 314.932 116.638 314.853 116.534L312.79 113.786C312.723 113.698 312.674 113.597 312.646 113.49C312.618 113.383 312.611 113.271 312.626 113.161C312.642 113.051 312.679 112.946 312.735 112.85C312.791 112.755 312.866 112.671 312.955 112.605C313.044 112.538 313.145 112.49 313.252 112.463C313.36 112.435 313.472 112.43 313.581 112.446C313.691 112.462 313.797 112.499 313.892 112.556C313.987 112.613 314.07 112.688 314.136 112.777L315.486 114.575L318.953 109.38C319.076 109.195 319.269 109.066 319.487 109.022C319.706 108.979 319.933 109.024 320.119 109.147C320.305 109.271 320.434 109.463 320.477 109.682C320.521 109.9 320.476 110.127 320.352 110.313L316.226 116.496C316.151 116.608 316.051 116.7 315.933 116.765C315.816 116.83 315.684 116.866 315.549 116.87L315.526 116.87Z" fill="white"/>
<path d="M419.837 121.233C418.36 121.233 416.916 120.796 415.689 119.976C414.461 119.157 413.504 117.992 412.939 116.629C412.374 115.266 412.226 113.766 412.514 112.319C412.802 110.872 413.513 109.543 414.557 108.5C415.601 107.457 416.932 106.746 418.38 106.459C419.829 106.171 421.33 106.318 422.694 106.883C424.058 107.448 425.224 108.404 426.045 109.63C426.865 110.857 427.303 112.299 427.303 113.774C427.303 115.753 426.517 117.65 425.116 119.049C423.716 120.447 421.817 121.233 419.837 121.233Z" fill="#E6E6E6"/>
<path d="M422.441 115.335L420.878 113.774L422.441 112.213C422.51 112.145 422.565 112.064 422.602 111.975C422.64 111.885 422.659 111.789 422.66 111.692C422.66 111.595 422.641 111.499 422.604 111.409C422.567 111.32 422.513 111.238 422.444 111.17C422.375 111.101 422.294 111.047 422.204 111.01C422.114 110.973 422.018 110.954 421.921 110.954C421.824 110.954 421.728 110.974 421.638 111.012C421.549 111.049 421.467 111.104 421.399 111.173L419.837 112.734L418.274 111.173C418.136 111.036 417.949 110.959 417.754 110.959C417.559 110.959 417.372 111.037 417.234 111.174C417.096 111.312 417.019 111.499 417.018 111.694C417.018 111.888 417.095 112.075 417.233 112.213L418.795 113.774L417.233 115.335C417.164 115.403 417.109 115.484 417.071 115.574C417.034 115.663 417.014 115.759 417.014 115.856C417.013 115.953 417.032 116.049 417.069 116.139C417.106 116.229 417.161 116.31 417.23 116.379C417.298 116.447 417.38 116.502 417.47 116.539C417.559 116.576 417.655 116.595 417.753 116.594C417.85 116.594 417.946 116.575 418.035 116.537C418.125 116.5 418.206 116.445 418.274 116.376L419.837 114.815L421.399 116.376C421.467 116.444 421.549 116.499 421.638 116.536C421.727 116.573 421.823 116.593 421.92 116.593C422.017 116.593 422.113 116.574 422.203 116.537C422.292 116.5 422.374 116.446 422.442 116.377C422.511 116.309 422.565 116.227 422.602 116.138C422.639 116.049 422.658 115.953 422.658 115.856C422.658 115.759 422.638 115.663 422.601 115.574C422.564 115.484 422.509 115.403 422.441 115.335Z" fill="white"/>
<path d="M470.65 50.4908H29.264C28.9726 50.4908 28.6932 50.3751 28.4871 50.1693C28.2811 49.9634 28.1653 49.6842 28.1653 49.3931C28.1653 49.102 28.2811 48.8229 28.4871 48.617C28.6932 48.4112 28.9726 48.2955 29.264 48.2955H470.65C470.942 48.2955 471.221 48.4112 471.427 48.617C471.633 48.8229 471.749 49.102 471.749 49.3931C471.749 49.6842 471.633 49.9634 471.427 50.1693C471.221 50.3751 470.942 50.4908 470.65 50.4908Z" fill="white"/>
<path d="M78.7276 32.9288C83.4169 32.9288 87.2184 29.0464 87.2184 24.2573C87.2184 19.4683 83.4169 15.5859 78.7276 15.5859C74.0383 15.5859 70.2368 19.4683 70.2368 24.2573C70.2368 29.0464 74.0383 32.9288 78.7276 32.9288Z" fill="white"/>
<path d="M108.059 32.9288C112.749 32.9288 116.55 29.0464 116.55 24.2573C116.55 19.4683 112.749 15.5859 108.059 15.5859C103.37 15.5859 99.5686 19.4683 99.5686 24.2573C99.5686 29.0464 103.37 32.9288 108.059 32.9288Z" fill="white"/>
<path d="M137.391 32.9288C142.081 32.9288 145.882 29.0464 145.882 24.2573C145.882 19.4683 142.081 15.5859 137.391 15.5859C132.702 15.5859 128.901 19.4683 128.901 24.2573C128.901 29.0464 132.702 32.9288 137.391 32.9288Z" fill="white"/>
<path d="M170.837 31.1109C170.704 31.1111 170.571 31.0845 170.448 31.0327C170.325 30.9809 170.213 30.9049 170.12 30.8092L164.39 24.9585C164.207 24.7711 164.104 24.5193 164.104 24.2571C164.104 23.9949 164.207 23.7431 164.39 23.5558L170.12 17.7054C170.212 17.6113 170.322 17.5362 170.443 17.4844C170.564 17.4327 170.694 17.4053 170.826 17.4038C170.958 17.4024 171.089 17.4269 171.211 17.4759C171.334 17.525 171.445 17.5977 171.539 17.6898C171.634 17.7819 171.709 17.8916 171.761 18.0127C171.812 18.1339 171.84 18.264 171.841 18.3957C171.843 18.5274 171.818 18.6581 171.769 18.7803C171.72 18.9026 171.647 19.014 171.555 19.1081L166.513 24.2571L171.555 29.4065C171.693 29.5477 171.787 29.7264 171.824 29.9204C171.861 30.1143 171.839 30.3148 171.763 30.4968C171.686 30.6788 171.557 30.8342 171.393 30.9434C171.228 31.0526 171.035 31.1109 170.837 31.1109Z" fill="white"/>
<path d="M180.464 31.1109C180.267 31.1109 180.074 31.0527 179.909 30.9434C179.744 30.8342 179.616 30.6788 179.539 30.4969C179.462 30.3149 179.441 30.1144 179.478 29.9204C179.515 29.7265 179.609 29.5477 179.747 29.4066L184.789 24.2571L179.747 19.1081C179.561 18.918 179.458 18.6617 179.461 18.3957C179.463 18.1297 179.572 17.8758 179.762 17.6898C179.953 17.5038 180.209 17.4009 180.476 17.4039C180.742 17.4068 180.996 17.5153 181.182 17.7055L186.911 23.5558C187.094 23.7432 187.197 23.9949 187.197 24.2572C187.197 24.5194 187.094 24.7711 186.911 24.9585L181.182 30.8093C181.089 30.9049 180.977 30.9809 180.854 31.0327C180.731 31.0845 180.598 31.1111 180.464 31.1109Z" fill="white"/>
<path d="M402.869 16.5899H392.217C391.928 16.5898 391.642 16.6465 391.375 16.7569C391.108 16.8673 390.866 17.0291 390.662 17.2331C390.457 17.4371 390.295 17.6793 390.185 17.9458C390.074 18.2124 390.018 18.4981 390.018 18.7866V29.4389C390.018 29.7274 390.074 30.0131 390.185 30.2796C390.295 30.5462 390.457 30.7884 390.662 30.9924C390.866 31.1964 391.108 31.3582 391.375 31.4685C391.642 31.5789 391.928 31.6357 392.217 31.6356H402.869C403.454 31.6361 404.014 31.4052 404.428 30.9934C404.842 30.5816 405.076 30.0226 405.078 29.4389V18.7866C405.076 18.2029 404.842 17.6438 404.428 17.232C404.014 16.8202 403.454 16.5893 402.869 16.5899Z" fill="white"/>
<path d="M376.764 16.5899H366.111C365.823 16.5898 365.537 16.6465 365.27 16.7569C365.003 16.8673 364.761 17.0291 364.556 17.2331C364.352 17.4371 364.19 17.6793 364.08 17.9458C363.969 18.2124 363.913 18.4981 363.913 18.7866V29.4389C363.913 29.7274 363.969 30.0131 364.08 30.2796C364.19 30.5462 364.352 30.7884 364.556 30.9924C364.761 31.1964 365.003 31.3582 365.27 31.4685C365.537 31.5789 365.823 31.6357 366.111 31.6356H376.764C377.349 31.6361 377.909 31.4052 378.323 30.9934C378.737 30.5816 378.971 30.0226 378.973 29.4389V18.7866C378.971 18.2029 378.737 17.6438 378.323 17.232C377.909 16.8202 377.349 16.5893 376.764 16.5899Z" fill="white"/>
<path d="M427.468 17.0914H416.816C416.527 17.0913 416.241 17.1481 415.974 17.2584C415.707 17.3688 415.465 17.5306 415.261 17.7346C415.056 17.9386 414.894 18.1808 414.784 18.4473C414.673 18.7139 414.617 18.9996 414.617 19.2881V29.9404C414.617 30.2289 414.673 30.5146 414.784 30.7812C414.894 31.0477 415.056 31.2899 415.261 31.4939C415.465 31.6979 415.707 31.8597 415.974 31.9701C416.241 32.0804 416.527 32.1372 416.816 32.1371H427.468C428.053 32.1377 428.613 31.9068 429.027 31.495C429.442 31.0832 429.675 30.5241 429.677 29.9404V19.2881C429.675 18.7044 429.442 18.1453 429.027 17.7335C428.613 17.3218 428.053 17.0908 427.468 17.0914Z" fill="white"/>
<path d="M311.078 21.1437H225.926C225.572 21.1414 225.222 21.209 224.894 21.3426C224.567 21.4762 224.27 21.6731 224.019 21.922C223.768 22.1709 223.569 22.4669 223.433 22.793C223.297 23.119 223.228 23.4687 223.228 23.8218C223.228 24.175 223.297 24.5246 223.433 24.8507C223.569 25.1767 223.768 25.4727 224.019 25.7217C224.27 25.9706 224.567 26.1675 224.894 26.3011C225.222 26.4346 225.572 26.5022 225.926 26.5H311.078C311.786 26.4954 312.464 26.2113 312.963 25.7095C313.462 25.2078 313.742 24.5292 313.742 23.8218C313.742 23.1145 313.462 22.4359 312.963 21.9341C312.464 21.4323 311.786 21.1482 311.078 21.1437Z" fill="white"/>
</g>
<defs>
<clipPath id="clip0_302_2544">
<rect width="512" height="416" fill="white"/>
</clipPath>
</defs>
</svg>
