<svg width="610" height="440" viewBox="0 0 610 440" fill="none" xmlns="http://www.w3.org/2000/svg">
<g clip-path="url(#clip0_192_2329)">
<path d="M608.23 436.626H0.880217C0.646769 436.626 0.422882 436.533 0.257809 436.368C0.0927362 436.203 0 435.979 0 435.745C0 435.512 0.0927362 435.288 0.257809 435.123C0.422882 434.958 0.646769 434.865 0.880217 434.865H608.23C608.463 434.865 608.687 434.958 608.852 435.123C609.017 435.288 609.11 435.512 609.11 435.745C609.11 435.979 609.017 436.203 608.852 436.368C608.687 436.533 608.463 436.626 608.23 436.626Z" fill="#CCCCCC"/>
<path d="M548.115 283.114H190.747C189.229 283.114 187.774 283.717 186.701 284.79C185.628 285.863 185.025 287.318 185.025 288.836C185.025 290.353 185.628 291.808 186.701 292.881C187.774 293.954 189.229 294.557 190.747 294.557H200.869V431.431C200.869 432.948 201.472 434.404 202.545 435.476C203.618 436.549 205.073 437.152 206.591 437.152C208.108 437.152 209.563 436.549 210.636 435.476C211.709 434.404 212.312 432.948 212.312 431.431L212.399 294.557H525.669V431.431C525.669 432.948 526.272 434.404 527.345 435.476C528.418 436.549 529.873 437.152 531.391 437.152C532.908 437.152 534.363 436.549 535.436 435.476C536.509 434.404 537.112 432.948 537.112 431.431V297.574L538.777 294.557H548.115C549.632 294.557 551.088 293.954 552.161 292.881C553.234 291.808 553.836 290.353 553.836 288.836C553.836 287.318 553.234 285.863 552.161 284.79C551.088 283.717 549.632 283.114 548.115 283.114Z" fill="#CCCCCC"/>
<path d="M388.875 286.108H280.624C278.528 286.106 276.518 285.272 275.036 283.79C273.554 282.308 272.72 280.299 272.718 278.203V218.604C272.72 216.508 273.554 214.498 275.036 213.016C276.518 211.534 278.528 210.7 280.624 210.698H388.875C390.971 210.7 392.98 211.534 394.462 213.016C395.945 214.498 396.778 216.508 396.781 218.604V278.203C396.778 280.299 395.945 282.308 394.462 283.79C392.98 285.272 390.971 286.106 388.875 286.108Z" fill="#3F3D56"/>
<path d="M388.874 216.783H280.625C280.142 216.784 279.679 216.976 279.337 217.317C278.996 217.659 278.804 218.122 278.803 218.605V278.204C278.804 278.687 278.996 279.15 279.337 279.491C279.679 279.833 280.142 280.025 280.625 280.026H388.874C389.357 280.025 389.82 279.833 390.161 279.491C390.503 279.15 390.695 278.687 390.696 278.204V218.605C390.695 218.122 390.503 217.659 390.161 217.317C389.82 216.976 389.357 216.784 388.874 216.783Z" fill="white"/>
<path d="M343.982 258.979C343.982 258.979 331.023 255.992 323.896 261.467C316.768 266.941 332.967 279.384 332.967 279.384L343.982 258.979Z" fill="#2F2E41"/>
<path d="M335.384 253.336C342.135 253.336 347.608 247.864 347.608 241.113C347.608 234.362 342.135 228.889 335.384 228.889C328.633 228.889 323.16 234.362 323.16 241.113C323.16 247.864 328.633 253.336 335.384 253.336Z" fill="#A0616A"/>
<path d="M325.932 223.954C326.747 222.57 327.928 221.439 329.346 220.685C330.764 219.93 332.362 219.583 333.965 219.68C335.642 219.89 337.278 220.348 338.82 221.039L346.811 224.156C348.878 224.962 351.143 225.95 352.04 227.98C352.873 229.864 352.252 232.04 351.623 234.002L348.633 243.326C348.302 241.216 347.734 239.15 346.939 237.167C346.131 235.171 344.672 233.507 342.798 232.446C340.722 231.381 338.276 231.403 335.946 231.515C332.646 231.674 329.058 232.094 326.713 234.421C325.468 235.743 324.624 237.391 324.28 239.174C323.94 240.947 323.769 242.748 323.769 244.553C322.416 242.227 321.276 239.783 320.363 237.252C319.613 235.367 319.185 233.368 319.098 231.341C319.019 229.297 319.698 227.295 321.003 225.719C321.666 224.949 322.53 224.38 323.499 224.075C324.468 223.77 325.503 223.741 326.487 223.993L325.932 223.954Z" fill="#2F2E41"/>
<path d="M364.571 269.578C364.456 269.165 364.222 268.795 363.898 268.515C363.574 268.235 363.174 268.056 362.749 268.002C362.721 267.983 362.691 267.965 362.661 267.95L344.413 257.723C343.892 257.431 343.278 257.351 342.7 257.5C342.121 257.649 341.622 258.015 341.307 258.522L336.316 266.603L328.799 259.086L328.68 258.966C328.294 258.58 327.785 258.343 327.241 258.295C326.698 258.248 326.155 258.393 325.708 258.706L310.711 269.208C310.684 269.208 310.658 269.217 310.632 269.217C309.914 269.337 309.258 269.698 308.773 270.24C308.288 270.783 308.003 271.474 307.964 272.201L307.577 280.026H367.467L364.571 269.578Z" fill="#F9A826"/>
<path d="M397.997 278.811H386.442C386.442 278.488 386.314 278.179 386.086 277.951C385.858 277.723 385.548 277.594 385.226 277.594H381.577C381.254 277.594 380.945 277.723 380.717 277.951C380.489 278.179 380.361 278.488 380.361 278.811H376.712C376.712 278.488 376.584 278.179 376.355 277.951C376.127 277.723 375.818 277.594 375.495 277.594H371.846C371.524 277.594 371.214 277.723 370.986 277.951C370.758 278.179 370.63 278.488 370.63 278.811H366.981C366.981 278.488 366.853 278.179 366.625 277.951C366.397 277.723 366.088 277.594 365.765 277.594H362.116C361.793 277.594 361.484 277.723 361.256 277.951C361.028 278.179 360.9 278.488 360.9 278.811H357.251C357.251 278.488 357.123 278.179 356.895 277.951C356.667 277.723 356.357 277.594 356.035 277.594H352.386C352.063 277.594 351.754 277.723 351.526 277.951C351.298 278.179 351.169 278.488 351.169 278.811H347.52C347.52 278.488 347.392 278.179 347.164 277.951C346.936 277.723 346.627 277.594 346.304 277.594H342.655C342.333 277.594 342.023 277.723 341.795 277.951C341.567 278.179 341.439 278.488 341.439 278.811H337.79C337.79 278.488 337.662 278.179 337.434 277.951C337.206 277.723 336.896 277.594 336.574 277.594H332.925C332.602 277.594 332.293 277.723 332.065 277.951C331.837 278.179 331.709 278.488 331.709 278.811H328.06C328.06 278.488 327.931 278.179 327.703 277.951C327.475 277.723 327.166 277.594 326.843 277.594H323.194C322.872 277.594 322.562 277.723 322.334 277.951C322.106 278.179 321.978 278.488 321.978 278.811H318.329C318.329 278.488 318.201 278.179 317.973 277.951C317.745 277.723 317.436 277.594 317.113 277.594H313.464C313.141 277.594 312.832 277.723 312.604 277.951C312.376 278.179 312.248 278.488 312.248 278.811H308.599C308.599 278.488 308.471 278.179 308.243 277.951C308.015 277.723 307.705 277.594 307.383 277.594H303.734C303.411 277.594 303.102 277.723 302.874 277.951C302.646 278.179 302.517 278.488 302.517 278.811H298.868C298.868 278.488 298.74 278.179 298.512 277.951C298.284 277.723 297.975 277.594 297.652 277.594H294.003C293.681 277.594 293.371 277.723 293.143 277.951C292.915 278.179 292.787 278.488 292.787 278.811H289.138C289.138 278.488 289.01 278.179 288.782 277.951C288.554 277.723 288.244 277.594 287.922 277.594H284.273C283.95 277.594 283.641 277.723 283.413 277.951C283.185 278.179 283.057 278.488 283.057 278.811H271.502C270.535 278.812 269.608 279.197 268.925 279.881C268.242 280.566 267.858 281.493 267.858 282.46C267.858 283.426 268.242 284.354 268.925 285.038C269.608 285.722 270.535 286.107 271.502 286.108H397.997C398.965 286.108 399.893 285.724 400.577 285.04C401.261 284.355 401.646 283.427 401.646 282.46C401.646 281.492 401.261 280.564 400.577 279.879C399.893 279.195 398.965 278.811 397.997 278.811Z" fill="#3F3D56"/>
<path d="M252.692 257.62V281.849H191.99C190.364 281.906 188.743 281.634 187.224 281.051C185.704 280.468 184.318 279.584 183.148 278.454C181.977 277.323 181.046 275.969 180.41 274.471C179.775 272.973 179.447 271.362 179.447 269.735C179.447 268.107 179.775 266.497 180.41 264.999C181.046 263.501 181.977 262.146 183.148 261.016C184.318 259.885 185.704 259.002 187.224 258.419C188.743 257.835 190.364 257.564 191.99 257.62H252.692Z" fill="#F2F2F2"/>
<path d="M254.183 281.663C254.183 281.91 254.085 282.147 253.91 282.321C253.735 282.496 253.498 282.594 253.251 282.595H190.909C187.523 282.595 184.276 281.249 181.882 278.855C179.487 276.461 178.142 273.214 178.142 269.828C178.142 266.442 179.487 263.195 181.882 260.801C184.276 258.406 187.523 257.061 190.909 257.061H253.251C253.498 257.061 253.735 257.159 253.91 257.334C254.085 257.509 254.183 257.746 254.183 257.993C254.183 258.24 254.085 258.477 253.91 258.652C253.735 258.827 253.498 258.925 253.251 258.925H190.909C188.019 258.928 185.248 260.077 183.206 262.122C181.163 264.166 180.016 266.938 180.016 269.828C180.016 272.718 181.163 275.489 183.206 277.534C185.248 279.578 188.019 280.728 190.909 280.731H253.251C253.498 280.731 253.735 280.829 253.91 281.004C254.085 281.179 254.183 281.415 254.183 281.663Z" fill="#F9A826"/>
<path d="M252.692 263.212H187.461C187.436 263.212 187.412 263.207 187.389 263.198C187.366 263.189 187.346 263.175 187.328 263.157C187.311 263.14 187.297 263.12 187.288 263.097C187.278 263.074 187.273 263.05 187.273 263.025C187.273 263.001 187.278 262.976 187.288 262.954C187.297 262.931 187.311 262.91 187.328 262.893C187.346 262.876 187.366 262.862 187.389 262.853C187.412 262.843 187.436 262.839 187.461 262.839H252.692C252.741 262.839 252.788 262.859 252.823 262.894C252.857 262.929 252.877 262.976 252.877 263.025C252.877 263.074 252.857 263.122 252.823 263.157C252.788 263.192 252.741 263.211 252.692 263.212Z" fill="#CCCCCC"/>
<path d="M252.692 267.685H187.461C187.436 267.685 187.412 267.68 187.389 267.671C187.366 267.662 187.346 267.648 187.328 267.631C187.311 267.613 187.297 267.593 187.288 267.57C187.278 267.547 187.273 267.523 187.273 267.498C187.273 267.474 187.278 267.449 187.288 267.427C187.297 267.404 187.311 267.383 187.328 267.366C187.346 267.349 187.366 267.335 187.389 267.326C187.412 267.316 187.436 267.312 187.461 267.312H252.692C252.741 267.312 252.788 267.332 252.823 267.367C252.857 267.402 252.877 267.449 252.877 267.498C252.877 267.547 252.857 267.595 252.823 267.63C252.788 267.665 252.741 267.684 252.692 267.685Z" fill="#CCCCCC"/>
<path d="M252.692 272.158H187.461C187.436 272.158 187.412 272.153 187.389 272.144C187.366 272.135 187.346 272.121 187.328 272.104C187.311 272.086 187.297 272.066 187.288 272.043C187.278 272.02 187.273 271.996 187.273 271.971C187.273 271.947 187.278 271.922 187.288 271.9C187.297 271.877 187.311 271.856 187.328 271.839C187.346 271.822 187.366 271.808 187.389 271.799C187.412 271.789 187.436 271.785 187.461 271.785H252.692C252.741 271.785 252.788 271.805 252.823 271.84C252.857 271.875 252.877 271.922 252.877 271.971C252.877 272.02 252.857 272.068 252.823 272.103C252.788 272.138 252.741 272.157 252.692 272.158Z" fill="#CCCCCC"/>
<path d="M252.692 276.631H187.461C187.436 276.631 187.412 276.626 187.389 276.617C187.366 276.607 187.346 276.594 187.328 276.576C187.311 276.559 187.297 276.538 187.288 276.516C187.278 276.493 187.273 276.469 187.273 276.444C187.273 276.42 187.278 276.395 187.288 276.373C187.297 276.35 187.311 276.329 187.328 276.312C187.346 276.295 187.366 276.281 187.389 276.272C187.412 276.262 187.436 276.258 187.461 276.258H252.692C252.741 276.258 252.788 276.278 252.823 276.313C252.857 276.348 252.877 276.395 252.877 276.444C252.877 276.493 252.857 276.541 252.823 276.576C252.788 276.61 252.741 276.63 252.692 276.631Z" fill="#CCCCCC"/>
<path d="M241.249 232.094V256.323H180.547C178.921 256.379 177.3 256.108 175.781 255.525C174.262 254.941 172.875 254.058 171.705 252.928C170.534 251.797 169.603 250.442 168.968 248.944C168.332 247.446 168.004 245.836 168.004 244.208C168.004 242.581 168.332 240.97 168.968 239.472C169.603 237.974 170.534 236.62 171.705 235.489C172.875 234.359 174.262 233.476 175.781 232.892C177.3 232.309 178.921 232.038 180.547 232.094H241.249Z" fill="#F2F2F2"/>
<path d="M242.74 256.136C242.74 256.384 242.642 256.62 242.467 256.795C242.292 256.97 242.055 257.068 241.808 257.068H179.466C177.79 257.068 176.129 256.738 174.581 256.096C173.032 255.455 171.624 254.514 170.439 253.329C169.253 252.144 168.313 250.736 167.671 249.187C167.03 247.638 166.7 245.978 166.7 244.302C166.7 242.625 167.03 240.965 167.671 239.416C168.313 237.867 169.253 236.46 170.439 235.274C171.624 234.089 173.032 233.148 174.581 232.507C176.129 231.865 177.79 231.535 179.466 231.535H241.808C242.055 231.535 242.292 231.633 242.467 231.808C242.642 231.983 242.74 232.22 242.74 232.467C242.74 232.714 242.642 232.951 242.467 233.126C242.292 233.301 242.055 233.399 241.808 233.399H179.466C176.576 233.401 173.806 234.551 171.763 236.596C169.72 238.64 168.573 241.412 168.573 244.302C168.573 247.192 169.72 249.963 171.763 252.008C173.806 254.052 176.576 255.202 179.466 255.205H241.808C242.055 255.205 242.292 255.303 242.467 255.478C242.642 255.652 242.74 255.889 242.74 256.136Z" fill="#3F3D56"/>
<path d="M241.249 237.685H176.018C175.994 237.686 175.969 237.681 175.946 237.672C175.924 237.662 175.903 237.649 175.886 237.631C175.868 237.614 175.854 237.593 175.845 237.571C175.835 237.548 175.831 237.524 175.831 237.499C175.831 237.474 175.835 237.45 175.845 237.427C175.854 237.405 175.868 237.384 175.886 237.367C175.903 237.349 175.924 237.336 175.946 237.326C175.969 237.317 175.994 237.312 176.018 237.313H241.249C241.298 237.313 241.345 237.333 241.38 237.368C241.415 237.403 241.434 237.45 241.434 237.499C241.434 237.548 241.415 237.595 241.38 237.63C241.345 237.665 241.298 237.685 241.249 237.685Z" fill="#CCCCCC"/>
<path d="M241.249 242.158H176.018C175.994 242.159 175.969 242.154 175.946 242.145C175.924 242.135 175.903 242.122 175.886 242.104C175.868 242.087 175.854 242.066 175.845 242.044C175.835 242.021 175.831 241.997 175.831 241.972C175.831 241.947 175.835 241.923 175.845 241.9C175.854 241.878 175.868 241.857 175.886 241.84C175.903 241.822 175.924 241.809 175.946 241.799C175.969 241.79 175.994 241.785 176.018 241.786H241.249C241.298 241.786 241.345 241.806 241.38 241.841C241.415 241.876 241.434 241.923 241.434 241.972C241.434 242.021 241.415 242.068 241.38 242.103C241.345 242.138 241.298 242.158 241.249 242.158Z" fill="#CCCCCC"/>
<path d="M241.249 246.631H176.018C175.994 246.631 175.969 246.627 175.946 246.617C175.924 246.608 175.903 246.594 175.886 246.577C175.868 246.56 175.854 246.539 175.845 246.517C175.835 246.494 175.831 246.47 175.831 246.445C175.831 246.42 175.835 246.396 175.845 246.373C175.854 246.351 175.868 246.33 175.886 246.313C175.903 246.295 175.924 246.282 175.946 246.272C175.969 246.263 175.994 246.258 176.018 246.259H241.249C241.298 246.259 241.345 246.279 241.38 246.314C241.415 246.349 241.434 246.396 241.434 246.445C241.434 246.494 241.415 246.541 241.38 246.576C241.345 246.611 241.298 246.631 241.249 246.631Z" fill="#CCCCCC"/>
<path d="M241.249 251.104H176.018C175.994 251.104 175.969 251.1 175.946 251.09C175.924 251.081 175.903 251.067 175.886 251.05C175.868 251.033 175.854 251.012 175.845 250.989C175.835 250.967 175.831 250.942 175.831 250.918C175.831 250.893 175.835 250.869 175.845 250.846C175.854 250.824 175.868 250.803 175.886 250.786C175.903 250.768 175.924 250.755 175.946 250.745C175.969 250.736 175.994 250.731 176.018 250.731H241.249C241.298 250.732 241.345 250.752 241.38 250.786C241.415 250.821 241.434 250.869 241.434 250.918C241.434 250.967 241.415 251.014 241.38 251.049C241.345 251.084 241.298 251.104 241.249 251.104Z" fill="#CCCCCC"/>
<path d="M311.864 367.969V346.843C311.864 345.91 311.493 345.014 310.832 344.354C310.172 343.693 309.277 343.323 308.343 343.323H228.243C227.309 343.323 226.414 343.693 225.753 344.354C225.093 345.014 224.722 345.91 224.722 346.843V367.969H311.864Z" fill="#CCCCCC"/>
<path d="M311.864 375.891H224.722V403.177H311.864V375.891Z" fill="#CCCCCC"/>
<path d="M224.722 411.099V432.224C224.722 433.158 225.093 434.054 225.753 434.714C226.414 435.374 227.309 435.745 228.243 435.745H308.343C309.277 435.745 310.172 435.374 310.832 434.714C311.493 434.054 311.864 433.158 311.864 432.224V411.099H224.722Z" fill="#CCCCCC"/>
<path d="M267.853 359.167C269.311 359.167 270.493 357.984 270.493 356.526C270.493 355.068 269.311 353.885 267.853 353.885C266.394 353.885 265.212 355.068 265.212 356.526C265.212 357.984 266.394 359.167 267.853 359.167Z" fill="white"/>
<path d="M267.853 394.375C269.311 394.375 270.493 393.193 270.493 391.735C270.493 390.276 269.311 389.094 267.853 389.094C266.394 389.094 265.212 390.276 265.212 391.735C265.212 393.193 266.394 394.375 267.853 394.375Z" fill="white"/>
<path d="M267.994 428.838C269.453 428.838 270.635 427.656 270.635 426.198C270.635 424.739 269.453 423.557 267.994 423.557C266.536 423.557 265.354 424.739 265.354 426.198C265.354 427.656 266.536 428.838 267.994 428.838Z" fill="white"/>
<path d="M301.984 319.236V343.464H241.282C239.656 343.521 238.035 343.249 236.516 342.666C234.996 342.083 233.61 341.199 232.44 340.069C231.269 338.938 230.338 337.584 229.703 336.086C229.067 334.588 228.739 332.977 228.739 331.35C228.739 329.723 229.067 328.112 229.703 326.614C230.338 325.116 231.269 323.761 232.44 322.631C233.61 321.5 234.996 320.617 236.516 320.034C238.035 319.45 239.656 319.179 241.282 319.236H301.984Z" fill="#F2F2F2"/>
<path d="M303.475 343.278C303.475 343.525 303.377 343.762 303.202 343.937C303.027 344.111 302.79 344.21 302.543 344.21H240.201C238.524 344.211 236.862 343.882 235.312 343.241C233.762 342.6 232.354 341.66 231.167 340.474C229.98 339.289 229.039 337.881 228.397 336.331C227.754 334.782 227.424 333.121 227.424 331.443C227.424 329.766 227.754 328.105 228.397 326.555C229.039 325.006 229.98 323.598 231.167 322.412C232.354 321.226 233.762 320.286 235.312 319.645C236.862 319.004 238.524 318.675 240.201 318.677H302.543C302.79 318.677 303.027 318.775 303.202 318.949C303.377 319.124 303.475 319.361 303.475 319.608C303.475 319.856 303.377 320.093 303.202 320.267C303.027 320.442 302.79 320.54 302.543 320.54H240.201C237.311 320.543 234.541 321.693 232.498 323.737C230.455 325.781 229.308 328.553 229.308 331.443C229.308 334.333 230.455 337.105 232.498 339.149C234.541 341.194 237.311 342.343 240.201 342.346H302.543C302.79 342.346 303.027 342.444 303.202 342.619C303.377 342.794 303.475 343.031 303.475 343.278Z" fill="#3F3D56"/>
<path d="M301.984 324.827H236.753C236.729 324.827 236.704 324.822 236.681 324.813C236.659 324.804 236.638 324.79 236.621 324.773C236.603 324.755 236.589 324.735 236.58 324.712C236.57 324.689 236.566 324.665 236.566 324.64C236.566 324.616 236.57 324.592 236.58 324.569C236.589 324.546 236.603 324.526 236.621 324.508C236.638 324.491 236.659 324.477 236.681 324.468C236.704 324.459 236.729 324.454 236.753 324.454H301.984C302.033 324.454 302.08 324.474 302.115 324.509C302.15 324.544 302.169 324.591 302.169 324.64C302.169 324.69 302.15 324.737 302.115 324.772C302.08 324.807 302.033 324.827 301.984 324.827Z" fill="#CCCCCC"/>
<path d="M301.984 329.3H236.753C236.729 329.3 236.704 329.295 236.681 329.286C236.659 329.277 236.638 329.263 236.621 329.246C236.603 329.228 236.589 329.208 236.58 329.185C236.57 329.162 236.566 329.138 236.566 329.113C236.566 329.089 236.57 329.065 236.58 329.042C236.589 329.019 236.603 328.999 236.621 328.981C236.638 328.964 236.659 328.95 236.681 328.941C236.704 328.932 236.729 328.927 236.753 328.927H301.984C302.033 328.927 302.08 328.947 302.115 328.982C302.15 329.017 302.169 329.064 302.169 329.113C302.169 329.163 302.15 329.21 302.115 329.245C302.08 329.28 302.033 329.3 301.984 329.3Z" fill="#CCCCCC"/>
<path d="M301.984 333.773H236.753C236.729 333.773 236.704 333.768 236.681 333.759C236.659 333.75 236.638 333.736 236.621 333.719C236.603 333.701 236.589 333.681 236.58 333.658C236.57 333.635 236.566 333.611 236.566 333.586C236.566 333.562 236.57 333.537 236.58 333.515C236.589 333.492 236.603 333.471 236.621 333.454C236.638 333.437 236.659 333.423 236.681 333.414C236.704 333.405 236.729 333.4 236.753 333.4H301.984C302.033 333.4 302.08 333.42 302.115 333.455C302.15 333.49 302.169 333.537 302.169 333.586C302.169 333.636 302.15 333.683 302.115 333.718C302.08 333.753 302.033 333.772 301.984 333.773Z" fill="#CCCCCC"/>
<path d="M301.984 338.246H236.753C236.729 338.246 236.704 338.241 236.681 338.232C236.659 338.223 236.638 338.209 236.621 338.192C236.603 338.174 236.589 338.154 236.58 338.131C236.57 338.108 236.566 338.084 236.566 338.059C236.566 338.035 236.57 338.01 236.58 337.988C236.589 337.965 236.603 337.944 236.621 337.927C236.638 337.91 236.659 337.896 236.681 337.887C236.704 337.877 236.729 337.873 236.753 337.873H301.984C302.033 337.873 302.08 337.893 302.115 337.928C302.15 337.963 302.169 338.01 302.169 338.059C302.169 338.109 302.15 338.156 302.115 338.191C302.08 338.226 302.033 338.245 301.984 338.246Z" fill="#CCCCCC"/>
<path d="M220.151 161.099V6.6205C220.153 4.86525 220.852 3.18246 222.093 1.94131C223.334 0.70016 225.017 0.00199654 226.772 0H348.883C350.638 0.00200817 352.321 0.700176 353.562 1.94132C354.803 3.18247 355.502 4.86525 355.504 6.6205V161.099C355.502 162.854 354.803 164.537 353.562 165.778C352.321 167.019 350.638 167.717 348.883 167.719H226.772C225.017 167.717 223.334 167.019 222.093 165.778C220.852 164.537 220.153 162.854 220.151 161.099ZM226.772 1.47122C225.407 1.47275 224.098 2.01576 223.132 2.9811C222.167 3.94645 221.624 5.2553 221.623 6.6205V161.099C221.624 162.464 222.167 163.773 223.132 164.738C224.098 165.703 225.407 166.246 226.772 166.248H348.883C350.248 166.246 351.557 165.703 352.522 164.738C353.488 163.773 354.031 162.464 354.032 161.099V6.6205C354.031 5.2553 353.488 3.94644 352.522 2.9811C351.557 2.01576 350.248 1.47275 348.883 1.47122H226.772Z" fill="#E6E6E6"/>
<path d="M294.675 70.9434V39.2242C294.676 38.3466 295.025 37.5052 295.646 36.8846C296.266 36.264 297.108 35.9149 297.985 35.9139H324.865C325.742 35.9149 326.584 36.264 327.204 36.8846C327.825 37.5052 328.174 38.3466 328.175 39.2242V70.9434C328.174 71.8211 327.825 72.6625 327.204 73.283C326.584 73.9036 325.742 74.2527 324.865 74.2537H297.985C297.108 74.2527 296.266 73.9036 295.646 73.283C295.025 72.6625 294.676 71.8211 294.675 70.9434Z" fill="#F9A826"/>
<path d="M242.447 85.6556V53.9365C242.448 53.0588 242.797 52.2174 243.417 51.5968C244.038 50.9762 244.879 50.6272 245.757 50.6262H272.636C273.514 50.6272 274.355 50.9762 274.976 51.5968C275.596 52.2174 275.946 53.0588 275.946 53.9365V85.6557C275.946 86.5333 275.596 87.3747 274.976 87.9953C274.355 88.6159 273.514 88.9649 272.636 88.9659H245.757C244.879 88.9649 244.038 88.6159 243.417 87.9953C242.797 87.3747 242.448 86.5333 242.447 85.6556Z" fill="#CCCCCC"/>
<path d="M284.377 130.528V98.8087C284.378 97.931 284.727 97.0896 285.347 96.469C285.968 95.8484 286.809 95.4994 287.687 95.4984H314.566C315.444 95.4994 316.285 95.8484 316.906 96.469C317.526 97.0896 317.875 97.931 317.876 98.8087V130.528C317.875 131.406 317.526 132.247 316.906 132.868C316.285 133.488 315.444 133.837 314.566 133.838H287.687C286.809 133.837 285.968 133.488 285.347 132.868C284.727 132.247 284.378 131.406 284.377 130.528Z" fill="#FF6584"/>
<path d="M445.005 275.546H417.349C417.086 275.546 416.827 275.606 416.592 275.722L409.612 279.216C409.382 279.314 409.186 279.477 409.048 279.685C408.911 279.893 408.837 280.137 408.837 280.387C408.837 280.637 408.911 280.881 409.048 281.089C409.186 281.297 409.382 281.46 409.612 281.558L416.592 285.052C416.827 285.168 417.086 285.228 417.349 285.228H445.005C445.386 285.25 445.761 285.121 446.047 284.869C446.334 284.617 446.51 284.262 446.537 283.882V276.893C446.51 276.512 446.334 276.157 446.047 275.905C445.761 275.653 445.386 275.524 445.005 275.546Z" fill="#3F3D56"/>
<path d="M446.537 276.893V283.882C446.51 284.262 446.334 284.617 446.047 284.869C445.761 285.121 445.386 285.25 445.005 285.228H439.495V275.546H445.005C445.386 275.524 445.761 275.653 446.047 275.905C446.334 276.157 446.51 276.512 446.537 276.893Z" fill="#F9A826"/>
<path d="M444.797 223.261C446.05 222.72 447.402 222.45 448.767 222.469C450.131 222.488 451.476 222.794 452.713 223.369C453.951 223.944 455.053 224.773 455.947 225.803C456.842 226.834 457.509 228.041 457.904 229.347C458.027 229.761 458.121 230.183 458.186 230.61L496.861 249.789L505.811 243.857L516.947 256.678L503.281 267.777C501.638 269.102 499.611 269.861 497.502 269.942C495.393 270.023 493.314 269.423 491.573 268.229L452.334 241.093C452.042 241.217 451.744 241.326 451.44 241.419C450.134 241.814 448.76 241.929 447.406 241.755C446.053 241.582 444.751 241.125 443.587 240.413C442.422 239.702 441.422 238.752 440.65 237.627C439.878 236.502 439.353 235.226 439.108 233.884C439.036 233.494 438.988 233.1 438.965 232.705C438.856 230.723 439.357 228.756 440.399 227.068C441.442 225.379 442.977 224.051 444.797 223.261Z" fill="#FFB8B8"/>
<path d="M525.35 341.341H483.091C483.091 342.556 439.538 343.541 439.538 343.541C438.854 344.056 438.231 344.647 437.68 345.302C436.026 347.275 435.122 349.769 435.127 352.344V354.104C435.129 357.022 436.288 359.82 438.351 361.883C440.414 363.946 443.212 365.106 446.13 365.107H525.35C528.267 365.104 531.064 363.944 533.127 361.881C535.19 359.818 536.35 357.021 536.352 354.104V352.344C536.348 349.427 535.188 346.63 533.125 344.568C531.063 342.505 528.267 341.345 525.35 341.341Z" fill="#3F3D56"/>
<path d="M479.382 438.608H490.824V364.67H479.382V438.608Z" fill="#3F3D56"/>
<path d="M446.814 438.206C446.814 439.442 464.153 438.684 485.543 438.684C506.933 438.684 524.273 439.442 524.273 438.206C524.273 436.969 506.933 427.165 485.543 427.165C464.153 427.165 446.814 436.969 446.814 438.206Z" fill="#3F3D56"/>
<path d="M457.143 429.54L446.353 429.539L441.218 401.551L457.145 401.551L457.143 429.54Z" fill="#FFB8B8"/>
<path d="M459.896 440L425.1 439.999V439.559C425.1 437.78 425.451 436.019 426.131 434.376C426.812 432.733 427.809 431.24 429.067 429.982C430.325 428.724 431.818 427.727 433.461 427.046C435.104 426.366 436.865 426.015 438.644 426.015H438.645L459.896 426.016L459.896 440Z" fill="#2F2E41"/>
<path d="M441.003 412.184L419.49 363.941C417.694 359.875 417.495 355.281 418.934 351.075C420.372 346.87 423.342 343.36 427.252 341.245L473.916 316.223L495.209 314.412L514.851 312.626L514.993 312.866C515.174 313.172 519.397 320.467 516.542 328.465C514.377 334.532 508.744 339.271 499.801 342.55C478.928 350.204 454.814 356.745 445.416 359.202C445.001 359.308 444.613 359.501 444.277 359.768C443.942 360.035 443.666 360.37 443.47 360.751C443.272 361.128 443.155 361.541 443.126 361.965C443.096 362.389 443.154 362.814 443.297 363.215L463.284 408.119C463.492 408.688 463.568 409.298 463.503 409.901C463.439 410.504 463.237 411.085 462.913 411.597C462.589 412.11 462.152 412.542 461.635 412.859C461.118 413.176 460.535 413.37 459.931 413.426L444.996 414.513C444.87 414.525 444.743 414.531 444.618 414.531C443.853 414.531 443.104 414.309 442.463 413.892C441.822 413.476 441.315 412.882 441.003 412.184Z" fill="#2F2E41"/>
<path d="M462.425 429.54L451.634 429.539L446.5 401.551L462.426 401.551L462.425 429.54Z" fill="#FFB8B8"/>
<path d="M465.177 440L430.381 439.999V439.559C430.381 437.78 430.732 436.019 431.412 434.376C432.093 432.733 433.091 431.24 434.348 429.982C435.606 428.724 437.099 427.727 438.742 427.046C440.385 426.366 442.146 426.015 443.925 426.015H443.926L465.178 426.016L465.177 440Z" fill="#2F2E41"/>
<path d="M447.165 414.824L425.652 366.582C423.855 362.516 423.657 357.922 425.095 353.716C426.534 349.51 429.504 346 433.414 343.886L480.077 318.863L501.371 317.052L521.012 315.267L521.154 315.507C521.335 315.813 525.558 323.107 522.704 331.106C520.538 337.173 514.906 341.911 505.963 345.191C485.089 352.845 460.976 359.386 451.578 361.843C451.162 361.949 450.774 362.142 450.439 362.409C450.103 362.676 449.828 363.011 449.631 363.392C449.434 363.768 449.317 364.181 449.287 364.605C449.257 365.029 449.316 365.455 449.458 365.855L469.445 410.759C469.654 411.329 469.729 411.939 469.665 412.542C469.601 413.145 469.399 413.725 469.075 414.238C468.751 414.751 468.313 415.182 467.796 415.499C467.279 415.816 466.696 416.01 466.092 416.066L451.158 417.154C451.031 417.166 450.905 417.172 450.779 417.172C450.014 417.172 449.266 416.95 448.625 416.533C447.983 416.116 447.476 415.523 447.165 414.824Z" fill="#2F2E41"/>
<path d="M436.442 267.449C427.402 255.424 420.255 242.086 415.25 227.899C414.96 227.051 414.981 226.127 415.309 225.292C415.636 224.457 416.249 223.765 417.039 223.34L447.974 206.764C448.475 206.494 449.03 206.342 449.598 206.319C450.167 206.296 450.733 206.402 451.254 206.631C451.784 206.862 452.255 207.21 452.63 207.65C453.006 208.09 453.276 208.61 453.42 209.17C457.021 222.841 463.789 235.473 473.177 246.043C473.564 246.473 473.847 246.986 474.005 247.542C474.163 248.098 474.193 248.683 474.091 249.252C473.993 249.813 473.768 250.343 473.435 250.804C473.101 251.264 472.666 251.642 472.164 251.909L441.228 268.485C440.437 268.907 439.522 269.034 438.645 268.845C437.769 268.655 436.988 268.16 436.442 267.449Z" fill="#CCCCCC"/>
<path d="M438.553 265.863C438.719 266.07 438.953 266.213 439.214 266.267C439.474 266.321 439.746 266.282 439.981 266.157L470.916 249.581C471.067 249.503 471.197 249.391 471.296 249.254C471.396 249.117 471.463 248.959 471.491 248.792C471.523 248.615 471.514 248.434 471.464 248.262C471.415 248.089 471.326 247.931 471.205 247.799C461.54 236.917 454.572 223.913 450.866 209.839C450.823 209.666 450.74 209.504 450.624 209.367C450.509 209.231 450.363 209.123 450.198 209.052C450.043 208.982 449.875 208.95 449.705 208.957C449.535 208.964 449.37 209.01 449.221 209.092L418.286 225.668C418.052 225.795 417.869 225.999 417.769 226.246C417.67 226.493 417.66 226.767 417.741 227.021C422.656 240.954 429.675 254.053 438.553 265.863Z" fill="white"/>
<path d="M539.214 263.027L514.987 272.234L509.072 255.803C508.286 253.621 508.297 251.232 509.103 249.058C509.909 246.883 511.457 245.064 513.474 243.921C515.515 242.764 517.902 242.376 520.205 242.825C522.507 243.274 524.573 244.532 526.029 246.372L539.214 263.027Z" fill="#F9A826"/>
<path d="M477.591 328.128C477.081 327.767 476.653 327.302 476.337 326.764C476.021 326.225 475.823 325.625 475.757 325.004C472.654 296.037 474.815 273.367 482.363 255.701C483.693 252.653 485.696 249.947 488.222 247.786C490.747 245.624 493.73 244.063 496.946 243.219L516.53 242.231L516.632 242.28C521.051 244.444 524.655 247.976 526.91 252.35C529.164 256.724 529.949 261.708 529.148 266.564C522.849 283.167 517.574 300.455 521.597 314.4C521.765 314.983 521.815 315.594 521.741 316.197C521.668 316.799 521.474 317.381 521.171 317.906C520.877 318.414 520.482 318.857 520.01 319.206C519.538 319.556 519 319.805 518.428 319.939L481.126 328.812C480.522 328.956 479.894 328.969 479.285 328.851C478.675 328.733 478.097 328.487 477.591 328.128Z" fill="#F9A826"/>
<path d="M509.994 234.916C521.934 234.916 531.613 225.237 531.613 213.297C531.613 201.357 521.934 191.678 509.994 191.678C498.054 191.678 488.375 201.357 488.375 213.297C488.375 225.237 498.054 234.916 509.994 234.916Z" fill="#FFB8B8"/>
<path d="M450.005 230.42L433.156 237.857C432.516 238.139 431.789 238.156 431.136 237.903C430.484 237.65 429.958 237.148 429.674 236.508L429.258 235.564C428.976 234.923 428.959 234.197 429.212 233.544C429.465 232.891 429.967 232.365 430.607 232.082L447.456 224.644C448.096 224.362 448.823 224.346 449.476 224.599C450.129 224.852 450.654 225.354 450.938 225.994L451.355 226.938C451.637 227.579 451.653 228.305 451.4 228.958C451.147 229.611 450.645 230.136 450.005 230.42Z" fill="#CCCCCC"/>
<path d="M456.167 241.863L439.318 249.3C438.677 249.582 437.951 249.598 437.298 249.346C436.645 249.093 436.119 248.591 435.836 247.951L435.419 247.007C435.137 246.366 435.121 245.639 435.374 244.987C435.627 244.334 436.128 243.808 436.768 243.525L453.617 236.087C454.258 235.805 454.984 235.789 455.637 236.042C456.29 236.295 456.816 236.796 457.099 237.436L457.516 238.381C457.798 239.021 457.814 239.748 457.561 240.401C457.308 241.053 456.807 241.579 456.167 241.863Z" fill="#CCCCCC"/>
<path d="M469.16 286.558L431.598 256.924C431.298 257.029 430.994 257.119 430.685 257.193C429.36 257.503 427.983 257.531 426.646 257.275C425.309 257.018 424.041 256.483 422.924 255.704C421.799 254.925 420.855 253.915 420.152 252.741C419.45 251.567 419.006 250.257 418.852 248.897C418.6 246.725 419.089 244.53 420.241 242.671C421.393 240.811 423.139 239.396 425.197 238.653C426.481 238.193 427.848 238.008 429.209 238.113C430.569 238.217 431.892 238.608 433.091 239.259C434.29 239.911 435.337 240.808 436.165 241.892C436.993 242.977 437.583 244.224 437.895 245.552C437.992 245.973 438.059 246.4 438.097 246.83L475.49 268.402L484.795 263.044L495.103 276.54L480.655 286.838C478.964 288.033 476.932 288.652 474.861 288.601C472.791 288.551 470.791 287.834 469.16 286.558Z" fill="#FFB8B8"/>
<path d="M499.687 280.743L478.255 266.169L488.327 251.903C489.664 250.009 491.628 248.648 493.872 248.062C496.115 247.476 498.494 247.701 500.587 248.699C502.705 249.708 504.391 251.442 505.343 253.586C506.294 255.73 506.448 258.143 505.776 260.391L499.687 280.743Z" fill="#F9A826"/>
<path d="M502.068 210.077C496.512 213.88 489.216 217.789 483.54 213.739C479.814 211.08 478.64 206.156 480.151 201.835C482.869 194.063 490.335 190.642 497.474 188.02C506.756 184.611 516.862 181.899 526.443 184.34C536.025 186.782 544.493 196.058 542.763 205.794C541.372 213.622 533.987 220.137 535.035 228.019C536.091 235.951 545.012 240.127 552.888 241.545C560.764 242.962 569.577 243.418 575.237 249.075C582.457 256.292 580.654 269.191 573.86 276.81C567.066 284.43 556.813 287.884 546.878 290.231C533.715 293.342 519.478 294.977 506.976 289.814C494.474 284.652 484.746 270.754 488.367 257.722C489.897 252.217 493.501 247.565 496.983 243.036C500.466 238.507 503.993 233.771 505.321 228.214C506.428 223.583 505.609 218.207 502.538 214.734C501.979 214.126 501.628 213.356 501.534 212.536C501.44 211.716 501.608 210.887 502.015 210.169L502.068 210.077Z" fill="#2F2E41"/>
<path d="M96.0072 315.116C90.4364 317.075 84.4552 317.565 78.6398 316.541C72.8244 315.516 67.3708 313.011 62.8044 309.268C51.175 299.507 47.5288 283.426 44.5621 268.535C41.637 253.855 38.712 239.174 35.787 224.493L54.1586 237.143C67.3703 246.24 80.8797 255.629 90.0275 268.806C99.1752 281.982 103.168 299.97 95.8183 314.228" fill="#E6E6E6"/>
<path d="M94.4368 368.439C96.2962 354.894 98.2082 341.176 96.9039 327.487C95.7455 315.329 92.0364 303.454 84.4851 293.718C80.4768 288.559 75.5996 284.14 70.0725 280.657C68.6313 279.748 67.3048 282.032 68.7398 282.938C78.3031 288.982 85.7 297.907 89.8639 308.426C94.463 320.123 95.2015 332.875 94.409 345.301C93.9297 352.815 92.914 360.281 91.8904 367.737C91.8097 368.074 91.8601 368.429 92.0312 368.731C92.2024 369.032 92.4817 369.257 92.8126 369.361C93.1502 369.452 93.51 369.406 93.8141 369.233C94.1181 369.061 94.3419 368.775 94.4368 368.439Z" fill="#F2F2F2"/>
<path d="M76.5269 344.472C74.1377 348.103 70.8536 351.058 66.9909 353.051C63.1283 355.045 58.8173 356.01 54.4733 355.854C43.3094 355.324 34.0023 347.532 25.6241 340.135L0.843079 318.255L17.244 317.47C29.0386 316.906 41.1374 316.379 52.3713 320.017C63.6053 323.654 73.9658 332.407 76.0199 344.035" fill="#E6E6E6"/>
<path d="M99.6917 376.225C90.7419 360.388 80.3609 342.788 61.8118 337.163C56.6543 335.604 51.2462 335.046 45.879 335.518C44.1874 335.664 44.6098 338.271 46.2983 338.126C55.295 337.379 64.2744 339.755 71.7247 344.853C78.894 349.733 84.476 356.517 89.2006 363.712C92.0946 368.118 94.6868 372.712 97.2795 377.3C98.1081 378.766 100.53 377.708 99.6917 376.225Z" fill="#F2F2F2"/>
<path d="M114.032 392.893C113.73 389.399 112.476 386.055 110.405 383.224C108.334 380.394 105.526 378.186 102.287 376.841V367.686H86.9321V377.129C83.8526 378.54 81.2023 380.743 79.2515 383.512C77.3006 386.281 76.119 389.518 75.8271 392.893L72.2164 434.865H117.643L114.032 392.893Z" fill="#F2F2F2"/>
</g>
<defs>
<clipPath id="clip0_192_2329">
<rect width="609.11" height="440" fill="white"/>
</clipPath>
</defs>
</svg>
