<svg width="578" height="298" viewBox="0 0 578 298" fill="none" xmlns="http://www.w3.org/2000/svg">
<g clip-path="url(#clip0_302_2715)">
<path d="M552.344 164.751L550.534 179.293L546.04 215.414H455.765C456.47 207.318 457.434 195.665 458.463 183.086C458.565 181.83 458.671 180.565 458.773 179.293C461.354 147.672 464.179 111.889 464.179 111.889L476.048 114.12L499.074 118.438L508.457 120.197L533.583 124.916C546.111 127.264 554.728 145.56 552.344 164.751Z" fill="#F2F2F2"/>
<path d="M484.059 53.3746L495.161 72.9696L473.824 88.2219L464.722 64.136L484.059 53.3746Z" fill="#FFB6B6"/>
<path d="M469.926 71.9123C485.115 71.9123 497.429 59.4927 497.429 44.1722C497.429 28.8518 485.115 16.4322 469.926 16.4322C454.738 16.4322 442.424 28.8518 442.424 44.1722C442.424 59.4927 454.738 71.9123 469.926 71.9123Z" fill="#FFB6B6"/>
<path d="M467.952 50.3738C465.768 47.0215 466.625 45.2681 464.797 44.0361C464.797 44.0361 464.061 43.5404 458.796 43.2577C457.617 34.6998 456.146 33.662 456.146 33.662C454.45 32.4659 451.933 32.8546 450.367 33.5861C447.055 35.1333 447.439 38.4754 445.209 39.115C442.129 39.9985 436.524 35.0179 435.972 29.3162C435.522 24.6651 438.493 20.1479 439.671 20.3868C440.839 20.6238 443.637 17.0219 445.147 17.0775C446.178 17.1154 450.392 15.2679 451.526 15.4123C452.764 15.5701 456.846 17.7188 457.016 17.2278C458.198 13.8165 457.851 12.87 458.854 11.8941C460.631 10.1648 463.539 11.369 468.1 12.0155C477.485 13.3457 479.123 10.2245 483.933 12.3401C486.362 13.4088 488.395 16.291 492.362 22.0117C497.909 30.0121 500.683 34.0122 500.701 38.6779C500.719 43.436 498.435 43.134 497.431 50.178C496.314 58.0191 498.687 61.6046 496.095 64.152C494.091 66.1208 490.018 66.5882 487.878 64.8603C484.215 61.9019 489.009 54.7632 484.955 49.5477C482.466 46.3463 477.461 44.9218 475.169 46.5043C472.576 48.2936 474.004 53.5458 472.181 54.0438C470.62 54.4703 468.332 50.9579 467.952 50.3738Z" fill="#2F2E41"/>
<path d="M532.017 159.629C531.25 172.859 528.203 177.036 527.135 192.66C526.902 196.09 526.762 200.072 526.762 204.82C526.762 206.031 526.769 207.201 526.769 208.345C526.769 210.779 526.722 213.08 526.442 215.413C526.229 217.277 525.862 219.153 525.255 221.13H466.022C466.016 221.117 466.016 221.103 466.009 221.09C465.662 219.57 465.442 218.117 465.275 216.725C465.222 216.281 465.175 215.844 465.135 215.413C465.082 214.909 465.035 214.411 464.989 213.92C464.809 211.963 464.629 210.114 464.202 208.345C463.629 205.903 462.588 203.603 460.454 201.383C459.581 200.475 458.708 199.769 457.854 199.151C457.687 199.036 457.527 198.922 457.36 198.807C455 197.173 452.766 195.996 450.832 192.66C450.799 192.613 450.772 192.559 450.746 192.512C450.412 191.927 449.545 190.393 448.918 188.349C448.258 186.223 447.858 183.553 448.578 180.823C450.292 174.352 456.64 173.707 461.828 167.169C462.388 166.463 462.942 165.683 463.468 164.815C465.815 160.968 466.449 157.578 467.196 153.549C467.316 152.897 467.422 152.251 467.509 151.626C467.576 151.155 467.636 150.691 467.683 150.233C468.096 146.393 467.896 143.084 467.409 140.124C465.822 130.432 461.141 124.433 464.448 115.736C465.489 113.006 466.963 110.954 468.449 109.199C471.596 105.48 474.831 103.065 474.271 98.263C473.704 93.4203 470.063 92.7543 469.657 88.5237C469.45 86.3851 470.143 84.1319 471.443 81.9191V81.9125C475.605 74.7896 485.994 68.2319 492.595 68.4405C493.815 68.4743 494.895 68.7498 495.795 69.2812C499.056 71.2181 497.696 75.4487 502.691 81.3811C506.404 85.7864 510.605 87.5486 512.199 88.3825C518.514 91.7053 523.648 101.505 527.135 114.035C527.162 114.129 527.189 114.223 527.215 114.324C529.37 122.173 530.89 131.085 531.644 140.124C531.963 143.951 532.15 147.799 532.19 151.605C532.224 154.645 532.157 157.282 532.017 159.629Z" fill="#F9A826"/>
<path d="M487.661 204.955L486.453 208.345L485.693 210.47L483.933 215.413L481.892 221.13H468.776L470.977 215.413L471.997 212.75L473.691 208.345L476.531 200.946L487.661 204.955Z" fill="#FFB6B6"/>
<path d="M527.342 112.878C527.309 113.315 527.262 113.799 527.215 114.324C526.696 119.665 525.468 129.222 523.675 140.124C522.728 145.875 521.621 152.002 520.374 158.089C517.694 171.225 514.36 184.159 510.592 192.66C509.919 194.194 509.225 195.579 508.518 196.803C507.978 197.738 507.411 198.659 506.818 199.567C504.897 202.547 502.743 205.372 500.51 208.008C500.423 208.123 500.323 208.23 500.223 208.345C499.863 208.775 499.489 209.199 499.116 209.623C497.289 211.701 495.422 213.638 493.615 215.413C491.415 217.579 489.294 219.496 487.394 221.13H466.095L466.009 221.09L462.942 219.718C462.942 219.718 463.815 218.682 465.275 216.725C465.576 216.328 465.895 215.891 466.243 215.413C466.669 214.828 467.129 214.183 467.622 213.483C468.649 212.017 469.816 210.295 471.07 208.345C473.497 204.571 476.264 199.931 479.058 194.557C479.379 193.931 479.705 193.299 480.032 192.66C480.038 192.64 480.052 192.619 480.059 192.599C480.612 191.51 481.159 190.387 481.706 189.243C486.34 179.518 487.667 171.447 488.047 168.83C488.581 165.131 489.32 159.959 489.121 154.269C488.987 150.516 488.447 146.547 487.16 142.606V142.6C486.894 141.772 486.593 140.945 486.253 140.124C485.646 138.652 484.926 137.199 484.073 135.766C480.305 129.457 477.245 129.195 474.811 122.321C474.091 120.283 472.457 115.683 472.957 110.827V110.82C473.017 110.221 473.117 109.616 473.251 109.011V109.004C473.284 108.836 473.331 108.661 473.378 108.493C473.757 107.007 474.384 105.533 475.338 104.134C477.198 101.417 479.738 99.8029 482.012 98.8413L482.019 98.8345C484.646 97.7317 486.914 97.4962 487.354 97.4558C497.096 96.5816 504.651 104.841 508.779 109.354C510.372 111.096 511.833 112.555 513.166 113.746C523.548 123.095 526.396 117.122 527.135 114.035C527.249 113.557 527.309 113.147 527.342 112.878Z" fill="#F9A826"/>
<path d="M527.376 112.529C527.376 112.562 527.369 112.676 527.342 112.865C527.356 112.764 527.363 112.663 527.369 112.569C527.369 112.549 527.369 112.535 527.376 112.529Z" fill="#F9A826"/>
<path d="M474.417 254.45H116.973C113.651 254.45 110.945 257.174 110.945 260.524C110.945 263.88 113.651 266.604 116.973 266.604H474.417C477.738 266.604 480.439 263.88 480.439 260.524C480.439 257.174 477.738 254.45 474.417 254.45Z" fill="#E6E6E6"/>
<path d="M395.093 285.847H196.29C192.969 285.847 190.269 288.57 190.269 291.92C190.269 295.269 192.969 298 196.29 298H395.093C398.414 298 401.121 295.269 401.121 291.92C401.121 288.57 398.414 285.847 395.093 285.847Z" fill="#E6E6E6"/>
<path d="M156.747 54.6641L179.275 45.1015L188.937 65.0809L165.264 74.8269L156.747 54.6641Z" fill="#FFB6B6"/>
<path opacity="0.1" d="M156.747 54.6641L179.275 45.1015L188.937 65.0809L165.264 74.8269L156.747 54.6641Z" fill="black"/>
<path d="M159.95 47.0507L182.173 72.8777C182.173 72.8777 166.713 122.095 151.254 126.481C135.794 130.867 107.29 152.308 107.29 152.308L71.5386 128.917L88.9309 103.09C88.9309 103.09 130.963 45.1015 142.074 45.1015C153.186 45.1015 159.95 47.0507 159.95 47.0507Z" fill="#F9A826"/>
<path d="M129.924 215.414H78.1912L74.9205 211.004L61.567 192.998L58.4943 188.856C58.4943 188.856 46.8994 167.414 49.315 147.922C51.7306 128.43 76.8529 124.044 76.8529 124.044H77.8868L108.642 151.304L106.806 176.673L116.546 192.998L129.924 215.414Z" fill="#2F2E41"/>
<path d="M88.786 215.414H74.9204V194.703L88.786 215.414Z" fill="#2F2E41"/>
<path d="M387.848 183.973L386.123 192.998L381.843 215.414H295.852C296.523 210.39 297.441 203.158 298.422 195.351C298.519 194.572 298.62 193.787 298.717 192.998C301.176 173.374 303.867 151.168 303.867 151.168L315.172 152.552L337.105 155.232L346.043 156.323L369.977 159.252C381.91 160.709 390.118 172.063 387.848 183.973Z" fill="#F2F2F2"/>
<path d="M509.541 215.414H462.901C463.611 214.571 464.012 214.083 464.012 214.083L477.993 211.754L506.802 206.959C506.802 206.959 508.116 210.385 509.541 215.414Z" fill="#2F2E41"/>
<path d="M311.705 64.4108L331.988 93.344L296.608 94.4097L292.81 67.2193L311.705 64.4108Z" fill="#A0616A"/>
<path opacity="0.1" d="M311.705 64.4108L331.988 93.344L296.608 94.4097L292.81 67.2193L311.705 64.4108Z" fill="black"/>
<path d="M211.677 124.358C209.074 116.786 203.091 112.002 198.313 113.673C193.536 115.345 191.774 122.837 194.378 130.412C195.377 133.453 197.084 136.208 199.355 138.446L210.784 170.392L225.532 164.662L212.699 133.778C213.109 130.601 212.759 127.371 211.677 124.358Z" fill="#A0616A"/>
<path d="M348.975 109.615L348.947 139.102L346.227 149.993L340.632 172.395L336.56 192.998L333.526 208.348L332.443 213.83C331.627 214.381 330.815 214.907 330.004 215.414H259.338C255.323 212.982 253.076 211.091 253.076 211.091C253.076 211.091 254.187 210.039 255.458 208.348C257.603 205.492 260.197 200.814 258.608 196.346C258.275 195.41 258.188 194.27 258.289 192.998C258.937 184.606 267.662 170.416 267.662 170.416L265.855 149.355L265.063 140.125L270.649 95.1228L288.858 84.446L292.001 84.1393L323.032 82.4483L335.858 83.1939L336.443 83.3547L348.975 109.615Z" fill="#CCCCCC"/>
<path d="M350.353 215.414H334.893L334.212 208.348L334.197 208.206L338.574 207.904L349.961 207.12L350.159 211.35L350.314 214.595L350.353 215.414Z" fill="#FFB6B6"/>
<path d="M354.159 116.745L360.653 155.178L355.353 192.998L354.527 198.884L353.068 209.278L352.619 212.475L352.633 212.821L352.744 215.414H334.386L333.709 208.348L333.651 207.714L332.27 193.241L332.245 192.998L329.313 162.307L335.062 140.125L335.487 138.493V138.488L337.989 100.508L336.051 83.2475L336.032 83.0866C336.071 83.111 336.104 83.1354 336.143 83.1598C336.245 83.2231 336.346 83.2864 336.443 83.3547C347.728 90.5765 354.453 103.246 354.159 116.745Z" fill="#CCCCCC"/>
<path d="M277.226 102.487L270.166 95.1223C270.166 95.1223 255.053 101.994 254.3 105.807C253.547 109.62 226.863 165.617 226.863 165.617L215.254 134.343L200.142 144.519C200.142 144.519 212.268 193.074 223.607 195.354C234.947 197.633 272.953 137.884 272.953 137.884L277.226 102.487Z" fill="#CCCCCC"/>
<path d="M563.884 192.66H14.1099C6.32821 192.66 0 199.049 0 206.898C0 214.747 6.32821 221.13 14.1099 221.13H563.884C571.665 221.13 578 214.748 578 206.898C578 199.049 571.665 192.66 563.884 192.66Z" fill="#E6E6E6"/>
<path d="M345.757 149.273L344.688 199.584C344.585 204.454 340.641 208.348 335.812 208.348H244.056C239.341 208.348 235.448 204.63 235.191 199.881L232.464 149.57C232.186 144.439 236.235 140.125 241.33 140.125H336.88C341.858 140.125 345.864 144.253 345.757 149.273Z" fill="#3F3D56"/>
<path d="M197.633 66.8086C209.757 66.8086 219.586 56.895 219.586 44.666C219.586 32.4369 209.757 22.5233 197.633 22.5233C185.509 22.5233 175.68 32.4369 175.68 44.666C175.68 56.895 185.509 66.8086 197.633 66.8086Z" fill="#FFB6B6"/>
<path d="M160.916 102.603L163.332 128.917L179.758 195.678L165.567 200.695L141.591 127.943L138.28 98.7047L160.916 102.603Z" fill="#FFB6B6"/>
<path d="M154.382 149.273L153.313 199.584C153.21 204.454 149.266 208.348 144.436 208.348H52.6811C47.9657 208.348 44.0728 204.63 43.8154 199.881L41.0886 149.57C40.8105 144.439 44.8601 140.125 49.9543 140.125H145.505C150.483 140.125 154.489 144.253 154.382 149.273Z" fill="#3F3D56"/>
<path d="M182.373 208.688C191.948 208.688 199.71 205.225 199.71 200.953C199.71 196.681 191.948 193.218 182.373 193.218C172.798 193.218 165.036 196.681 165.036 200.953C165.036 205.225 172.798 208.688 182.373 208.688Z" fill="#FFB6B6"/>
<path d="M126.856 106.626L136.76 53.3856C136.76 53.3856 164.298 49.4872 165.264 58.7459C166.23 68.0047 164.574 113.253 164.574 113.253L126.856 106.626Z" fill="#F9A826"/>
<path d="M188.771 48.1476C188.771 48.1476 202.351 43.259 208.08 40.6287C213.808 37.9984 225.188 56.3445 225.441 46.6553C225.694 36.9661 221.762 32.9029 221.762 32.9029C221.762 32.9029 220.78 11.7063 199.608 14.3564C199.608 14.3564 204.265 3.75156 188.979 2.11171C173.693 0.471868 149.911 37.7055 152.041 43.2699C154.17 48.8342 156.724 53.4345 150.681 59.3841C144.639 65.3336 133.324 98.9112 141.932 107.947C150.541 116.982 151.106 120.903 145.208 126.524C139.309 132.146 125.367 144.368 140.442 146.49C155.517 148.612 139.063 147.027 150.301 137.056C161.54 127.085 177.939 127.493 171.816 111.495C165.692 95.4974 176.331 72.5731 175 69.0953C173.668 65.6176 177.982 43.5338 177.982 43.5338C177.982 43.5338 188.021 42.0461 188.771 48.1476Z" fill="#2F2E41"/>
<path d="M300.86 74.8832C314.058 74.8832 324.757 64.0915 324.757 50.7793C324.757 37.4671 314.058 26.6754 300.86 26.6754C287.662 26.6754 276.963 37.4671 276.963 50.7793C276.963 64.0915 287.662 74.8832 300.86 74.8832Z" fill="#A0616A"/>
<path d="M302.767 18.3733C302.076 18.7804 301.149 18.1644 300.928 17.3884C300.706 16.6124 300.964 15.7884 301.22 15.0233L302.51 11.1713C303.424 8.43934 304.395 5.61196 306.375 3.53261C309.364 0.394177 314.115 -0.404226 318.391 0.174189C323.883 0.91699 329.302 3.91648 331.855 8.87652C334.409 13.8366 333.322 20.7576 328.708 23.8522C335.284 31.4546 337.576 39.9273 337.214 50.01C336.852 60.0927 325.959 69.372 318.855 76.4749C317.268 75.5049 315.826 70.959 316.699 69.3076C317.571 67.6562 316.321 65.743 317.401 64.2219C318.482 62.7008 319.386 65.1229 318.293 63.6104C317.604 62.656 320.294 60.4603 319.27 59.8891C314.314 57.1262 312.666 50.8959 309.554 46.1249C305.8 40.3702 299.375 36.4731 292.575 35.8265C288.829 35.4704 284.873 36.1154 281.803 38.3088C278.733 40.5021 276.745 44.4216 277.457 48.1478C275.614 46.2595 274.696 43.4921 275.042 40.8649C275.388 38.2376 276.991 35.8081 279.259 34.4711C277.88 29.8697 279.062 24.5767 282.264 21.016C285.466 17.4552 298.454 18.0617 303.129 18.9988L302.767 18.3733Z" fill="#2F2E41"/>
<path d="M303.493 35.9662C309.684 36.6404 314.155 42.0498 317.929 47.0454C320.105 49.9247 322.384 53.1045 322.33 56.7244C322.274 60.3842 319.848 63.5233 318.689 66.9916C316.794 72.6608 318.641 79.4058 323.152 83.2903C318.694 84.1435 313.876 80.7723 313.106 76.2623C312.21 71.0121 316.156 65.9448 315.689 60.6383C315.277 55.9632 311.625 52.3652 308.519 48.8696C305.414 45.3741 302.498 40.7356 303.926 36.2687L303.493 35.9662Z" fill="#2F2E41"/>
<path d="M396.052 195.707C389.919 199.225 386.748 205.268 388.968 209.204C391.189 213.141 397.959 213.479 404.094 209.958C406.563 208.586 408.671 206.637 410.24 204.275L436.038 189.037L428.69 176.979L404.039 193.281C401.223 193.434 398.484 194.266 396.052 195.707Z" fill="#FFB6B6"/>
<path d="M483.396 83.9659C482.625 83.6577 475.861 81.074 469.685 84.4853C462.591 88.4039 461.496 97.3494 461.111 100.487C460.224 107.735 462.839 109.359 463.391 116.697C464.424 130.424 467.147 114.764 462.798 121.03C461.292 123.199 445.916 156.81 437.436 163.393C420.944 176.198 410.471 185.215 410.471 185.215L422.427 198.315C422.427 198.315 441.32 193.238 458.019 182.301C475.148 171.082 483.713 165.473 490.339 154.499C490.909 153.554 504.563 130.168 497.23 104.308C495.558 98.4097 492.493 87.6023 483.396 83.9659Z" fill="#F9A826"/>
<path d="M545.134 149.273L544.065 199.584C543.962 204.454 540.018 208.348 535.188 208.348H443.433C438.718 208.348 434.825 204.63 434.568 199.881L431.841 149.57C431.563 144.439 435.612 140.125 440.707 140.125H536.257C541.235 140.125 545.241 144.253 545.134 149.273Z" fill="#3F3D56"/>
</g>
<defs>
<clipPath id="clip0_302_2715">
<rect width="578" height="298" fill="white"/>
</clipPath>
</defs>
</svg>
